<mxfile host="app.diagrams.net" agent="Mozilla/5.0 (Windows NT 10.0; Win64; x64) AppleWebKit/537.36 (KHTML, like Gecko) Chrome/134.0.0.0 Safari/537.36" version="26.1.2">
  <diagram id="R2lEEEUBdFMjLlhIrx00" name="Page-1">
    <mxGraphModel dx="2284" dy="772" grid="1" gridSize="10" guides="1" tooltips="1" connect="1" arrows="1" fold="1" page="1" pageScale="1" pageWidth="850" pageHeight="1100" math="0" shadow="0" extFonts="Permanent Marker^https://fonts.googleapis.com/css?family=Permanent+Marker">
      <root>
        <mxCell id="0" />
        <mxCell id="1" parent="0" />
        <mxCell id="7_QcFtuR1HdKdEtozn4c-1" value="User" style="whiteSpace=wrap;html=1;align=center;" parent="1" vertex="1">
          <mxGeometry x="380" y="100" width="100" height="40" as="geometry" />
        </mxCell>
        <mxCell id="7_QcFtuR1HdKdEtozn4c-2" value="Id" style="ellipse;whiteSpace=wrap;html=1;align=center;fontStyle=4;" parent="1" vertex="1">
          <mxGeometry x="220" y="90" width="100" height="40" as="geometry" />
        </mxCell>
        <mxCell id="7_QcFtuR1HdKdEtozn4c-3" value="username" style="ellipse;whiteSpace=wrap;html=1;align=center;fontStyle=4;" parent="1" vertex="1">
          <mxGeometry x="280" y="40" width="100" height="40" as="geometry" />
        </mxCell>
        <mxCell id="7_QcFtuR1HdKdEtozn4c-4" value="email address" style="ellipse;whiteSpace=wrap;html=1;align=center;fontStyle=4;" parent="1" vertex="1">
          <mxGeometry x="500" y="40" width="100" height="40" as="geometry" />
        </mxCell>
        <mxCell id="7_QcFtuR1HdKdEtozn4c-5" value="full name" style="ellipse;whiteSpace=wrap;html=1;align=center;" parent="1" vertex="1">
          <mxGeometry x="389.22" y="20" width="100" height="40" as="geometry" />
        </mxCell>
        <mxCell id="7_QcFtuR1HdKdEtozn4c-6" value="password hash" style="ellipse;whiteSpace=wrap;html=1;align=center;" parent="1" vertex="1">
          <mxGeometry x="540" y="100" width="100" height="40" as="geometry" />
        </mxCell>
        <mxCell id="7_QcFtuR1HdKdEtozn4c-8" value="" style="endArrow=none;html=1;rounded=0;" parent="1" source="7_QcFtuR1HdKdEtozn4c-2" target="7_QcFtuR1HdKdEtozn4c-1" edge="1">
          <mxGeometry relative="1" as="geometry">
            <mxPoint x="330" y="220" as="sourcePoint" />
            <mxPoint x="490" y="220" as="targetPoint" />
          </mxGeometry>
        </mxCell>
        <mxCell id="7_QcFtuR1HdKdEtozn4c-9" value="" style="endArrow=none;html=1;rounded=0;" parent="1" source="7_QcFtuR1HdKdEtozn4c-3" target="7_QcFtuR1HdKdEtozn4c-1" edge="1">
          <mxGeometry relative="1" as="geometry">
            <mxPoint x="330" y="220" as="sourcePoint" />
            <mxPoint x="490" y="220" as="targetPoint" />
          </mxGeometry>
        </mxCell>
        <mxCell id="7_QcFtuR1HdKdEtozn4c-10" value="" style="endArrow=none;html=1;rounded=0;" parent="1" source="7_QcFtuR1HdKdEtozn4c-1" target="7_QcFtuR1HdKdEtozn4c-6" edge="1">
          <mxGeometry relative="1" as="geometry">
            <mxPoint x="330" y="220" as="sourcePoint" />
            <mxPoint x="490" y="220" as="targetPoint" />
          </mxGeometry>
        </mxCell>
        <mxCell id="7_QcFtuR1HdKdEtozn4c-11" value="" style="endArrow=none;html=1;rounded=0;" parent="1" source="7_QcFtuR1HdKdEtozn4c-1" target="7_QcFtuR1HdKdEtozn4c-4" edge="1">
          <mxGeometry relative="1" as="geometry">
            <mxPoint x="330" y="220" as="sourcePoint" />
            <mxPoint x="490" y="220" as="targetPoint" />
          </mxGeometry>
        </mxCell>
        <mxCell id="7_QcFtuR1HdKdEtozn4c-12" value="" style="endArrow=none;html=1;rounded=0;" parent="1" source="7_QcFtuR1HdKdEtozn4c-5" target="7_QcFtuR1HdKdEtozn4c-1" edge="1">
          <mxGeometry relative="1" as="geometry">
            <mxPoint x="330" y="220" as="sourcePoint" />
            <mxPoint x="420" y="220" as="targetPoint" />
          </mxGeometry>
        </mxCell>
        <mxCell id="7_QcFtuR1HdKdEtozn4c-48" value="" style="group" parent="1" connectable="0" vertex="1">
          <mxGeometry x="270" y="280.00391651409797" width="69.2245945153137" height="93.97608348590202" as="geometry" />
        </mxCell>
        <mxCell id="7_QcFtuR1HdKdEtozn4c-41" value="" style="shape=image;verticalLabelPosition=bottom;verticalAlign=top;imageAspect=0;image=data:image/svg+xml,PHN2ZyB4bWxucz0iaHR0cDovL3d3dy53My5vcmcvMjAwMC9zdmciIHhtbG5zOnhsaW5rPSJodHRwOi8vd3d3LnczLm9yZy8xOTk5L3hsaW5rIiBhcmlhLWxhYmVsbGVkYnk9Ik1hdGhKYXgtU1ZHLTEtVGl0bGUiIHJvbGU9ImltZyIgdmlld0JveD0iODMuNSAtNTQxIDYxMSA1ODIuNSIgc3R5bGU9InZlcnRpY2FsLWFsaWduOiAtMC4zMzhleDsiIGhlaWdodD0iMS4zNTMyNjc5OTQ0NTM1NDg0IiB3aWR0aD0iMS40MTg5OTU1MDQxNzQ2OTUiPiYjeGE7PHRpdGxlIGlkPSJNYXRoSmF4LVNWRy0xLVRpdGxlIj57XGRpc3BsYXlzdHlsZSBcc3Vic2V0IH08L3RpdGxlPiYjeGE7PGRlZnMgYXJpYS1oaWRkZW49InRydWUiPiYjeGE7PHBhdGggZD0iTTg0IDI1MFE4NCAzNzIgMTY2IDQ1MFQzNjAgNTM5UTM2MSA1MzkgMzcwIDUzOVQzOTUgNTM5VDQzMCA1NDBUNDc1IDU0MFQ1MjQgNTQwSDY3OVE2OTQgNTMyIDY5NCA1MjBRNjk0IDUxMSA2ODEgNTAxTDUyMiA1MDBINDcwSDQ0MVEzNjYgNTAwIDMzOCA0OTZUMjY2IDQ3MlEyNDQgNDYxIDIyNCA0NDZUMTc5IDQwNFQxMzkgMzM3VDEyNCAyNTBWMjQ1UTEyNCAxNTcgMTg1IDg5UTI0NCAyNSAzMjggN1EzNDggMiAzNjYgMlQ1MjIgMEg2ODFRNjk0IC0xMCA2OTQgLTIwUTY5NCAtMzIgNjc5IC00MEg1MjZRNTEwIC00MCA0ODAgLTQwVDQzNCAtNDFRMzUwIC00MSAyODkgLTI1VDE3MiA0NVE4NCAxMjcgODQgMjUwWiIgaWQ9IkUxLU1KTUFJTi0yMjgyIiBzdHJva2Utd2lkdGg9IjEiLz4mI3hhOzwvZGVmcz4mI3hhOzxnIGFyaWEtaGlkZGVuPSJ0cnVlIiB0cmFuc2Zvcm09Im1hdHJpeCgxIDAgMCAtMSAwIDApIiBzdHJva2Utd2lkdGg9IjAiIGZpbGw9ImN1cnJlbnRDb2xvciIgc3Ryb2tlPSJjdXJyZW50Q29sb3IiPiYjeGE7IDx1c2UgeT0iMCIgeD0iMCIgeGxpbms6aHJlZj0iI0UxLU1KTUFJTi0yMjgyIi8+JiN4YTs8L2c+JiN4YTs8L3N2Zz4=;rotation=315;aspect=fixed;" parent="7_QcFtuR1HdKdEtozn4c-48" vertex="1">
          <mxGeometry x="68.97999999999999" y="11.976083485902024" width="20.248511029411763" height="20.248511029411763" as="geometry" />
        </mxCell>
        <mxCell id="7_QcFtuR1HdKdEtozn4c-49" value="" style="endArrow=none;html=1;rounded=0;" parent="1" source="7_QcFtuR1HdKdEtozn4c-1" target="7_QcFtuR1HdKdEtozn4c-50" edge="1">
          <mxGeometry relative="1" as="geometry">
            <mxPoint x="160" y="400" as="sourcePoint" />
            <mxPoint x="320" y="400" as="targetPoint" />
          </mxGeometry>
        </mxCell>
        <mxCell id="7_QcFtuR1HdKdEtozn4c-86" value="role" style="edgeLabel;html=1;align=center;verticalAlign=middle;resizable=0;points=[];" parent="7_QcFtuR1HdKdEtozn4c-49" connectable="0" vertex="1">
          <mxGeometry x="0.1667" y="-1" relative="1" as="geometry">
            <mxPoint x="14" as="offset" />
          </mxGeometry>
        </mxCell>
        <mxCell id="7_QcFtuR1HdKdEtozn4c-50" value="&lt;b&gt;o&lt;/b&gt;" style="ellipse;whiteSpace=wrap;html=1;aspect=fixed;" parent="1" vertex="1">
          <mxGeometry x="410" y="200" width="40" height="40" as="geometry" />
        </mxCell>
        <mxCell id="7_QcFtuR1HdKdEtozn4c-51" value="Invigilator" style="whiteSpace=wrap;html=1;align=center;" parent="1" vertex="1">
          <mxGeometry x="540" y="370" width="100" height="40" as="geometry" />
        </mxCell>
        <mxCell id="7_QcFtuR1HdKdEtozn4c-52" value="Test taker" style="whiteSpace=wrap;html=1;align=center;" parent="1" vertex="1">
          <mxGeometry x="380" y="370" width="100" height="40" as="geometry" />
        </mxCell>
        <mxCell id="7_QcFtuR1HdKdEtozn4c-53" value="Test setter" style="whiteSpace=wrap;html=1;align=center;" parent="1" vertex="1">
          <mxGeometry x="210" y="370" width="100" height="40" as="geometry" />
        </mxCell>
        <mxCell id="7_QcFtuR1HdKdEtozn4c-40" value="" style="endArrow=none;html=1;rounded=0;" parent="1" source="7_QcFtuR1HdKdEtozn4c-50" target="7_QcFtuR1HdKdEtozn4c-53" edge="1">
          <mxGeometry relative="1" as="geometry">
            <mxPoint x="368.53075311271937" y="236.38463841040084" as="sourcePoint" />
            <mxPoint x="270" y="373.98" as="targetPoint" />
          </mxGeometry>
        </mxCell>
        <mxCell id="7_QcFtuR1HdKdEtozn4c-87" value="&quot;Test setter&quot;" style="edgeLabel;html=1;align=center;verticalAlign=middle;resizable=0;points=[];" parent="7_QcFtuR1HdKdEtozn4c-40" connectable="0" vertex="1">
          <mxGeometry x="-0.4232" y="-2" relative="1" as="geometry">
            <mxPoint x="-63" y="7" as="offset" />
          </mxGeometry>
        </mxCell>
        <mxCell id="7_QcFtuR1HdKdEtozn4c-57" value="" style="endArrow=none;html=1;rounded=0;" parent="1" source="7_QcFtuR1HdKdEtozn4c-50" target="7_QcFtuR1HdKdEtozn4c-52" edge="1">
          <mxGeometry relative="1" as="geometry">
            <mxPoint x="429" y="246" as="sourcePoint" />
            <mxPoint x="334" y="380" as="targetPoint" />
          </mxGeometry>
        </mxCell>
        <mxCell id="7_QcFtuR1HdKdEtozn4c-88" value="&quot;Test taker&quot;" style="edgeLabel;html=1;align=center;verticalAlign=middle;resizable=0;points=[];" parent="7_QcFtuR1HdKdEtozn4c-57" connectable="0" vertex="1">
          <mxGeometry x="0.3533" y="-1" relative="1" as="geometry">
            <mxPoint x="-30" y="-1" as="offset" />
          </mxGeometry>
        </mxCell>
        <mxCell id="7_QcFtuR1HdKdEtozn4c-56" value="" style="shape=image;verticalLabelPosition=bottom;verticalAlign=top;imageAspect=0;image=data:image/svg+xml,PHN2ZyB4bWxucz0iaHR0cDovL3d3dy53My5vcmcvMjAwMC9zdmciIHhtbG5zOnhsaW5rPSJodHRwOi8vd3d3LnczLm9yZy8xOTk5L3hsaW5rIiBhcmlhLWxhYmVsbGVkYnk9Ik1hdGhKYXgtU1ZHLTEtVGl0bGUiIHJvbGU9ImltZyIgdmlld0JveD0iODMuNSAtNTQxIDYxMSA1ODIuNSIgc3R5bGU9InZlcnRpY2FsLWFsaWduOiAtMC4zMzhleDsiIGhlaWdodD0iMS4zNTMyNjc5OTQ0NTM1NDg0IiB3aWR0aD0iMS40MTg5OTU1MDQxNzQ2OTUiPiYjeGE7PHRpdGxlIGlkPSJNYXRoSmF4LVNWRy0xLVRpdGxlIj57XGRpc3BsYXlzdHlsZSBcc3Vic2V0IH08L3RpdGxlPiYjeGE7PGRlZnMgYXJpYS1oaWRkZW49InRydWUiPiYjeGE7PHBhdGggZD0iTTg0IDI1MFE4NCAzNzIgMTY2IDQ1MFQzNjAgNTM5UTM2MSA1MzkgMzcwIDUzOVQzOTUgNTM5VDQzMCA1NDBUNDc1IDU0MFQ1MjQgNTQwSDY3OVE2OTQgNTMyIDY5NCA1MjBRNjk0IDUxMSA2ODEgNTAxTDUyMiA1MDBINDcwSDQ0MVEzNjYgNTAwIDMzOCA0OTZUMjY2IDQ3MlEyNDQgNDYxIDIyNCA0NDZUMTc5IDQwNFQxMzkgMzM3VDEyNCAyNTBWMjQ1UTEyNCAxNTcgMTg1IDg5UTI0NCAyNSAzMjggN1EzNDggMiAzNjYgMlQ1MjIgMEg2ODFRNjk0IC0xMCA2OTQgLTIwUTY5NCAtMzIgNjc5IC00MEg1MjZRNTEwIC00MCA0ODAgLTQwVDQzNCAtNDFRMzUwIC00MSAyODkgLTI1VDE3MiA0NVE4NCAxMjcgODQgMjUwWiIgaWQ9IkUxLU1KTUFJTi0yMjgyIiBzdHJva2Utd2lkdGg9IjEiLz4mI3hhOzwvZGVmcz4mI3hhOzxnIGFyaWEtaGlkZGVuPSJ0cnVlIiB0cmFuc2Zvcm09Im1hdHJpeCgxIDAgMCAtMSAwIDApIiBzdHJva2Utd2lkdGg9IjAiIGZpbGw9ImN1cnJlbnRDb2xvciIgc3Ryb2tlPSJjdXJyZW50Q29sb3IiPiYjeGE7IDx1c2UgeT0iMCIgeD0iMCIgeGxpbms6aHJlZj0iI0UxLU1KTUFJTi0yMjgyIi8+JiN4YTs8L2c+JiN4YTs8L3N2Zz4=;rotation=270;aspect=fixed;" parent="1" vertex="1">
          <mxGeometry x="419.88" y="293.98" width="20.248511029411763" height="20.248511029411763" as="geometry" />
        </mxCell>
        <mxCell id="7_QcFtuR1HdKdEtozn4c-62" value="" style="endArrow=none;html=1;rounded=0;" parent="1" source="7_QcFtuR1HdKdEtozn4c-50" target="7_QcFtuR1HdKdEtozn4c-51" edge="1">
          <mxGeometry relative="1" as="geometry">
            <mxPoint x="599" y="220" as="sourcePoint" />
            <mxPoint x="504" y="354" as="targetPoint" />
          </mxGeometry>
        </mxCell>
        <mxCell id="7_QcFtuR1HdKdEtozn4c-89" value="&quot;Invigilator&quot;" style="edgeLabel;html=1;align=center;verticalAlign=middle;resizable=0;points=[];" parent="7_QcFtuR1HdKdEtozn4c-62" connectable="0" vertex="1">
          <mxGeometry x="-0.3565" y="3" relative="1" as="geometry">
            <mxPoint x="44" y="-6" as="offset" />
          </mxGeometry>
        </mxCell>
        <mxCell id="7_QcFtuR1HdKdEtozn4c-61" value="" style="shape=image;verticalLabelPosition=bottom;verticalAlign=top;imageAspect=0;image=data:image/svg+xml,PHN2ZyB4bWxucz0iaHR0cDovL3d3dy53My5vcmcvMjAwMC9zdmciIHhtbG5zOnhsaW5rPSJodHRwOi8vd3d3LnczLm9yZy8xOTk5L3hsaW5rIiBhcmlhLWxhYmVsbGVkYnk9Ik1hdGhKYXgtU1ZHLTEtVGl0bGUiIHJvbGU9ImltZyIgdmlld0JveD0iODMuNSAtNTQxIDYxMSA1ODIuNSIgc3R5bGU9InZlcnRpY2FsLWFsaWduOiAtMC4zMzhleDsiIGhlaWdodD0iMS4zNTMyNjc5OTQ0NTM1NDg0IiB3aWR0aD0iMS40MTg5OTU1MDQxNzQ2OTUiPiYjeGE7PHRpdGxlIGlkPSJNYXRoSmF4LVNWRy0xLVRpdGxlIj57XGRpc3BsYXlzdHlsZSBcc3Vic2V0IH08L3RpdGxlPiYjeGE7PGRlZnMgYXJpYS1oaWRkZW49InRydWUiPiYjeGE7PHBhdGggZD0iTTg0IDI1MFE4NCAzNzIgMTY2IDQ1MFQzNjAgNTM5UTM2MSA1MzkgMzcwIDUzOVQzOTUgNTM5VDQzMCA1NDBUNDc1IDU0MFQ1MjQgNTQwSDY3OVE2OTQgNTMyIDY5NCA1MjBRNjk0IDUxMSA2ODEgNTAxTDUyMiA1MDBINDcwSDQ0MVEzNjYgNTAwIDMzOCA0OTZUMjY2IDQ3MlEyNDQgNDYxIDIyNCA0NDZUMTc5IDQwNFQxMzkgMzM3VDEyNCAyNTBWMjQ1UTEyNCAxNTcgMTg1IDg5UTI0NCAyNSAzMjggN1EzNDggMiAzNjYgMlQ1MjIgMEg2ODFRNjk0IC0xMCA2OTQgLTIwUTY5NCAtMzIgNjc5IC00MEg1MjZRNTEwIC00MCA0ODAgLTQwVDQzNCAtNDFRMzUwIC00MSAyODkgLTI1VDE3MiA0NVE4NCAxMjcgODQgMjUwWiIgaWQ9IkUxLU1KTUFJTi0yMjgyIiBzdHJva2Utd2lkdGg9IjEiLz4mI3hhOzwvZGVmcz4mI3hhOzxnIGFyaWEtaGlkZGVuPSJ0cnVlIiB0cmFuc2Zvcm09Im1hdHJpeCgxIDAgMCAtMSAwIDApIiBzdHJva2Utd2lkdGg9IjAiIGZpbGw9ImN1cnJlbnRDb2xvciIgc3Ryb2tlPSJjdXJyZW50Q29sb3IiPiYjeGE7IDx1c2UgeT0iMCIgeD0iMCIgeGxpbms6aHJlZj0iI0UxLU1KTUFJTi0yMjgyIi8+JiN4YTs8L2c+JiN4YTs8L3N2Zz4=;rotation=225;aspect=fixed;" parent="1" vertex="1">
          <mxGeometry x="489.88" y="283.98" width="20.248511029411763" height="20.248511029411763" as="geometry" />
        </mxCell>
        <mxCell id="7_QcFtuR1HdKdEtozn4c-64" value="Test" style="whiteSpace=wrap;html=1;align=center;" parent="1" vertex="1">
          <mxGeometry x="210" y="631" width="100" height="40" as="geometry" />
        </mxCell>
        <mxCell id="7_QcFtuR1HdKdEtozn4c-65" value="creates" style="shape=rhombus;perimeter=rhombusPerimeter;whiteSpace=wrap;html=1;align=center;" parent="1" vertex="1">
          <mxGeometry x="200" y="451" width="120" height="60" as="geometry" />
        </mxCell>
        <mxCell id="7_QcFtuR1HdKdEtozn4c-66" value="" style="shape=link;html=1;rounded=0;" parent="1" source="7_QcFtuR1HdKdEtozn4c-65" target="7_QcFtuR1HdKdEtozn4c-64" edge="1">
          <mxGeometry relative="1" as="geometry">
            <mxPoint x="165" y="511" as="sourcePoint" />
            <mxPoint x="325" y="511" as="targetPoint" />
          </mxGeometry>
        </mxCell>
        <mxCell id="7_QcFtuR1HdKdEtozn4c-67" value="N" style="resizable=0;html=1;whiteSpace=wrap;align=left;verticalAlign=bottom;" parent="7_QcFtuR1HdKdEtozn4c-66" connectable="0" vertex="1">
          <mxGeometry x="-1" relative="1" as="geometry">
            <mxPoint x="-18" y="24" as="offset" />
          </mxGeometry>
        </mxCell>
        <mxCell id="7_QcFtuR1HdKdEtozn4c-70" value="" style="endArrow=none;html=1;rounded=0;" parent="1" source="7_QcFtuR1HdKdEtozn4c-53" target="7_QcFtuR1HdKdEtozn4c-65" edge="1">
          <mxGeometry relative="1" as="geometry">
            <mxPoint x="385" y="499.375" as="sourcePoint" />
            <mxPoint x="495" y="500" as="targetPoint" />
          </mxGeometry>
        </mxCell>
        <mxCell id="7_QcFtuR1HdKdEtozn4c-71" value="1" style="resizable=0;html=1;whiteSpace=wrap;align=right;verticalAlign=bottom;" parent="7_QcFtuR1HdKdEtozn4c-70" connectable="0" vertex="1">
          <mxGeometry x="1" relative="1" as="geometry">
            <mxPoint x="-4" y="-1" as="offset" />
          </mxGeometry>
        </mxCell>
        <mxCell id="7_QcFtuR1HdKdEtozn4c-72" value="Id" style="ellipse;whiteSpace=wrap;html=1;align=center;fontStyle=4;" parent="1" vertex="1">
          <mxGeometry x="140" y="551" width="100" height="40" as="geometry" />
        </mxCell>
        <mxCell id="7_QcFtuR1HdKdEtozn4c-73" value="title" style="ellipse;whiteSpace=wrap;html=1;align=center;" parent="1" vertex="1">
          <mxGeometry x="70" y="591" width="100" height="40" as="geometry" />
        </mxCell>
        <mxCell id="7_QcFtuR1HdKdEtozn4c-75" value="start time" style="ellipse;whiteSpace=wrap;html=1;align=center;" parent="1" vertex="1">
          <mxGeometry x="350" y="691" width="100" height="40" as="geometry" />
        </mxCell>
        <mxCell id="7_QcFtuR1HdKdEtozn4c-76" value="description" style="ellipse;whiteSpace=wrap;html=1;align=center;" parent="1" vertex="1">
          <mxGeometry x="50" y="641" width="100" height="40" as="geometry" />
        </mxCell>
        <mxCell id="7_QcFtuR1HdKdEtozn4c-77" value="end time" style="ellipse;whiteSpace=wrap;html=1;align=center;" parent="1" vertex="1">
          <mxGeometry x="270" y="721" width="100" height="40" as="geometry" />
        </mxCell>
        <mxCell id="7_QcFtuR1HdKdEtozn4c-78" value="" style="endArrow=none;html=1;rounded=0;" parent="1" source="7_QcFtuR1HdKdEtozn4c-77" target="7_QcFtuR1HdKdEtozn4c-64" edge="1">
          <mxGeometry relative="1" as="geometry">
            <mxPoint x="70" y="380.78" as="sourcePoint" />
            <mxPoint x="230" y="380.78" as="targetPoint" />
          </mxGeometry>
        </mxCell>
        <mxCell id="7_QcFtuR1HdKdEtozn4c-79" value="" style="endArrow=none;html=1;rounded=0;" parent="1" source="7_QcFtuR1HdKdEtozn4c-75" target="7_QcFtuR1HdKdEtozn4c-64" edge="1">
          <mxGeometry relative="1" as="geometry">
            <mxPoint x="70" y="380.78" as="sourcePoint" />
            <mxPoint x="230" y="380.78" as="targetPoint" />
          </mxGeometry>
        </mxCell>
        <mxCell id="7_QcFtuR1HdKdEtozn4c-80" value="" style="endArrow=none;html=1;rounded=0;" parent="1" source="7_QcFtuR1HdKdEtozn4c-76" target="7_QcFtuR1HdKdEtozn4c-64" edge="1">
          <mxGeometry relative="1" as="geometry">
            <mxPoint x="70" y="380.78" as="sourcePoint" />
            <mxPoint x="230" y="380.78" as="targetPoint" />
          </mxGeometry>
        </mxCell>
        <mxCell id="7_QcFtuR1HdKdEtozn4c-81" value="" style="endArrow=none;html=1;rounded=0;" parent="1" source="7_QcFtuR1HdKdEtozn4c-73" target="7_QcFtuR1HdKdEtozn4c-64" edge="1">
          <mxGeometry relative="1" as="geometry">
            <mxPoint x="70" y="380.78" as="sourcePoint" />
            <mxPoint x="230" y="380.78" as="targetPoint" />
          </mxGeometry>
        </mxCell>
        <mxCell id="7_QcFtuR1HdKdEtozn4c-82" value="" style="endArrow=none;html=1;rounded=0;" parent="1" source="7_QcFtuR1HdKdEtozn4c-72" target="7_QcFtuR1HdKdEtozn4c-64" edge="1">
          <mxGeometry relative="1" as="geometry">
            <mxPoint x="70" y="380.78" as="sourcePoint" />
            <mxPoint x="230" y="380.78" as="targetPoint" />
          </mxGeometry>
        </mxCell>
        <mxCell id="7_QcFtuR1HdKdEtozn4c-84" value="guidelines" style="ellipse;whiteSpace=wrap;html=1;align=center;" parent="1" vertex="1">
          <mxGeometry x="70" y="691" width="100" height="40" as="geometry" />
        </mxCell>
        <mxCell id="7_QcFtuR1HdKdEtozn4c-85" value="" style="endArrow=none;html=1;rounded=0;" parent="1" source="7_QcFtuR1HdKdEtozn4c-84" target="7_QcFtuR1HdKdEtozn4c-64" edge="1">
          <mxGeometry relative="1" as="geometry">
            <mxPoint x="180" y="380.78" as="sourcePoint" />
            <mxPoint x="369" y="620.78" as="targetPoint" />
          </mxGeometry>
        </mxCell>
        <mxCell id="7_QcFtuR1HdKdEtozn4c-90" value="questions of" style="shape=rhombus;double=1;perimeter=rhombusPerimeter;whiteSpace=wrap;html=1;align=center;" parent="1" vertex="1">
          <mxGeometry x="200" y="791" width="120" height="60" as="geometry" />
        </mxCell>
        <mxCell id="7_QcFtuR1HdKdEtozn4c-91" value="" style="endArrow=none;html=1;rounded=0;" parent="1" source="7_QcFtuR1HdKdEtozn4c-64" target="7_QcFtuR1HdKdEtozn4c-90" edge="1">
          <mxGeometry relative="1" as="geometry">
            <mxPoint x="310" y="351" as="sourcePoint" />
            <mxPoint x="470" y="351" as="targetPoint" />
          </mxGeometry>
        </mxCell>
        <mxCell id="7_QcFtuR1HdKdEtozn4c-92" value="1" style="resizable=0;html=1;whiteSpace=wrap;align=right;verticalAlign=bottom;" parent="7_QcFtuR1HdKdEtozn4c-91" connectable="0" vertex="1">
          <mxGeometry x="1" relative="1" as="geometry">
            <mxPoint x="-10" as="offset" />
          </mxGeometry>
        </mxCell>
        <mxCell id="7_QcFtuR1HdKdEtozn4c-93" value="Question" style="shape=ext;margin=3;double=1;whiteSpace=wrap;html=1;align=center;" parent="1" vertex="1">
          <mxGeometry x="210" y="941" width="100" height="40" as="geometry" />
        </mxCell>
        <mxCell id="7_QcFtuR1HdKdEtozn4c-94" value="" style="shape=link;html=1;rounded=0;" parent="1" source="7_QcFtuR1HdKdEtozn4c-93" target="7_QcFtuR1HdKdEtozn4c-90" edge="1">
          <mxGeometry relative="1" as="geometry">
            <mxPoint x="149.87" y="601.22" as="sourcePoint" />
            <mxPoint x="309.87" y="601.22" as="targetPoint" />
          </mxGeometry>
        </mxCell>
        <mxCell id="7_QcFtuR1HdKdEtozn4c-95" value="N" style="resizable=0;html=1;whiteSpace=wrap;align=right;verticalAlign=bottom;" parent="7_QcFtuR1HdKdEtozn4c-94" connectable="0" vertex="1">
          <mxGeometry x="1" relative="1" as="geometry">
            <mxPoint x="-8" y="17" as="offset" />
          </mxGeometry>
        </mxCell>
        <mxCell id="7_QcFtuR1HdKdEtozn4c-96" value="max. marks" style="ellipse;whiteSpace=wrap;html=1;align=center;dashed=1;" parent="1" vertex="1">
          <mxGeometry x="150" y="721" width="100" height="40" as="geometry" />
        </mxCell>
        <mxCell id="7_QcFtuR1HdKdEtozn4c-97" value="" style="endArrow=none;html=1;rounded=0;" parent="1" source="7_QcFtuR1HdKdEtozn4c-64" target="7_QcFtuR1HdKdEtozn4c-96" edge="1">
          <mxGeometry relative="1" as="geometry">
            <mxPoint x="310" y="381" as="sourcePoint" />
            <mxPoint x="470" y="381" as="targetPoint" />
          </mxGeometry>
        </mxCell>
        <mxCell id="7_QcFtuR1HdKdEtozn4c-99" value="" style="endArrow=none;html=1;rounded=0;" parent="1" source="UElor72e53C3lxd5PoUE-1" target="7_QcFtuR1HdKdEtozn4c-93" edge="1">
          <mxGeometry relative="1" as="geometry">
            <mxPoint x="184.32576957507035" y="907.4734401173041" as="sourcePoint" />
            <mxPoint x="210" y="941" as="targetPoint" />
          </mxGeometry>
        </mxCell>
        <mxCell id="7_QcFtuR1HdKdEtozn4c-100" value="question text" style="ellipse;whiteSpace=wrap;html=1;align=center;" parent="1" vertex="1">
          <mxGeometry x="50" y="920" width="100" height="40" as="geometry" />
        </mxCell>
        <mxCell id="7_QcFtuR1HdKdEtozn4c-101" value="" style="endArrow=none;html=1;rounded=0;" parent="1" source="7_QcFtuR1HdKdEtozn4c-100" target="7_QcFtuR1HdKdEtozn4c-93" edge="1">
          <mxGeometry relative="1" as="geometry">
            <mxPoint x="340" y="600" as="sourcePoint" />
            <mxPoint x="500" y="600" as="targetPoint" />
          </mxGeometry>
        </mxCell>
        <mxCell id="7_QcFtuR1HdKdEtozn4c-138" value="max. marks" style="ellipse;whiteSpace=wrap;html=1;align=center;" parent="1" vertex="1">
          <mxGeometry x="60" y="981" width="100" height="40" as="geometry" />
        </mxCell>
        <mxCell id="7_QcFtuR1HdKdEtozn4c-139" value="" style="endArrow=none;html=1;rounded=0;" parent="1" source="7_QcFtuR1HdKdEtozn4c-93" target="7_QcFtuR1HdKdEtozn4c-138" edge="1">
          <mxGeometry relative="1" as="geometry">
            <mxPoint x="340" y="1190" as="sourcePoint" />
            <mxPoint x="500" y="1190" as="targetPoint" />
          </mxGeometry>
        </mxCell>
        <mxCell id="7_QcFtuR1HdKdEtozn4c-144" value="TTT" style="shape=rhombus;double=1;perimeter=rhombusPerimeter;whiteSpace=wrap;html=1;align=center;" parent="1" vertex="1">
          <mxGeometry x="370" y="521" width="120" height="60" as="geometry" />
        </mxCell>
        <mxCell id="7_QcFtuR1HdKdEtozn4c-145" value="" style="endArrow=none;html=1;rounded=0;" parent="1" source="7_QcFtuR1HdKdEtozn4c-64" target="7_QcFtuR1HdKdEtozn4c-144" edge="1">
          <mxGeometry relative="1" as="geometry">
            <mxPoint x="340" y="610" as="sourcePoint" />
            <mxPoint x="500" y="610" as="targetPoint" />
          </mxGeometry>
        </mxCell>
        <mxCell id="7_QcFtuR1HdKdEtozn4c-146" value="N" style="resizable=0;html=1;whiteSpace=wrap;align=right;verticalAlign=bottom;" parent="7_QcFtuR1HdKdEtozn4c-145" connectable="0" vertex="1">
          <mxGeometry x="1" relative="1" as="geometry">
            <mxPoint x="-15" y="11" as="offset" />
          </mxGeometry>
        </mxCell>
        <mxCell id="7_QcFtuR1HdKdEtozn4c-147" value="" style="endArrow=none;html=1;rounded=0;" parent="1" source="7_QcFtuR1HdKdEtozn4c-52" target="7_QcFtuR1HdKdEtozn4c-144" edge="1">
          <mxGeometry relative="1" as="geometry">
            <mxPoint x="340" y="610" as="sourcePoint" />
            <mxPoint x="500" y="610" as="targetPoint" />
          </mxGeometry>
        </mxCell>
        <mxCell id="7_QcFtuR1HdKdEtozn4c-148" value="M" style="resizable=0;html=1;whiteSpace=wrap;align=right;verticalAlign=bottom;" parent="7_QcFtuR1HdKdEtozn4c-147" connectable="0" vertex="1">
          <mxGeometry x="1" relative="1" as="geometry">
            <mxPoint x="-4" y="-4" as="offset" />
          </mxGeometry>
        </mxCell>
        <mxCell id="7_QcFtuR1HdKdEtozn4c-150" value="Test attempt" style="shape=ext;margin=3;double=1;whiteSpace=wrap;html=1;align=center;" parent="1" vertex="1">
          <mxGeometry x="570" y="631" width="100" height="40" as="geometry" />
        </mxCell>
        <mxCell id="7_QcFtuR1HdKdEtozn4c-151" value="" style="shape=link;html=1;rounded=0;" parent="1" source="7_QcFtuR1HdKdEtozn4c-150" target="7_QcFtuR1HdKdEtozn4c-144" edge="1">
          <mxGeometry relative="1" as="geometry">
            <mxPoint x="340" y="610" as="sourcePoint" />
            <mxPoint x="500" y="610" as="targetPoint" />
          </mxGeometry>
        </mxCell>
        <mxCell id="7_QcFtuR1HdKdEtozn4c-152" value="1" style="resizable=0;html=1;whiteSpace=wrap;align=right;verticalAlign=bottom;" parent="7_QcFtuR1HdKdEtozn4c-151" connectable="0" vertex="1">
          <mxGeometry x="1" relative="1" as="geometry">
            <mxPoint x="30" y="10" as="offset" />
          </mxGeometry>
        </mxCell>
        <mxCell id="7_QcFtuR1HdKdEtozn4c-156" value="invigilates" style="shape=rhombus;perimeter=rhombusPerimeter;whiteSpace=wrap;html=1;align=center;" parent="1" vertex="1">
          <mxGeometry x="530" y="471" width="120" height="60" as="geometry" />
        </mxCell>
        <mxCell id="7_QcFtuR1HdKdEtozn4c-159" value="" style="shape=link;html=1;rounded=0;" parent="1" source="7_QcFtuR1HdKdEtozn4c-150" target="7_QcFtuR1HdKdEtozn4c-156" edge="1">
          <mxGeometry relative="1" as="geometry">
            <mxPoint x="340" y="710" as="sourcePoint" />
            <mxPoint x="500" y="710" as="targetPoint" />
          </mxGeometry>
        </mxCell>
        <mxCell id="7_QcFtuR1HdKdEtozn4c-160" value="N" style="resizable=0;html=1;whiteSpace=wrap;align=right;verticalAlign=bottom;" parent="7_QcFtuR1HdKdEtozn4c-159" connectable="0" vertex="1">
          <mxGeometry x="1" relative="1" as="geometry">
            <mxPoint x="-6" y="25" as="offset" />
          </mxGeometry>
        </mxCell>
        <mxCell id="7_QcFtuR1HdKdEtozn4c-161" value="" style="endArrow=none;html=1;rounded=0;" parent="1" source="7_QcFtuR1HdKdEtozn4c-51" target="7_QcFtuR1HdKdEtozn4c-156" edge="1">
          <mxGeometry relative="1" as="geometry">
            <mxPoint x="340" y="710" as="sourcePoint" />
            <mxPoint x="500" y="710" as="targetPoint" />
          </mxGeometry>
        </mxCell>
        <mxCell id="7_QcFtuR1HdKdEtozn4c-162" value="1" style="resizable=0;html=1;whiteSpace=wrap;align=right;verticalAlign=bottom;" parent="7_QcFtuR1HdKdEtozn4c-161" connectable="0" vertex="1">
          <mxGeometry x="1" relative="1" as="geometry">
            <mxPoint x="-4" y="-3" as="offset" />
          </mxGeometry>
        </mxCell>
        <mxCell id="7_QcFtuR1HdKdEtozn4c-163" value="environment image URL" style="ellipse;whiteSpace=wrap;html=1;align=center;" parent="1" vertex="1">
          <mxGeometry x="781" y="576" width="100" height="40" as="geometry" />
        </mxCell>
        <mxCell id="7_QcFtuR1HdKdEtozn4c-164" value="" style="endArrow=none;html=1;rounded=0;" parent="1" source="7_QcFtuR1HdKdEtozn4c-163" target="7_QcFtuR1HdKdEtozn4c-150" edge="1">
          <mxGeometry relative="1" as="geometry">
            <mxPoint x="440" y="710" as="sourcePoint" />
            <mxPoint x="600" y="710" as="targetPoint" />
          </mxGeometry>
        </mxCell>
        <mxCell id="7_QcFtuR1HdKdEtozn4c-165" value="screen position" style="ellipse;whiteSpace=wrap;html=1;align=center;" parent="1" vertex="1">
          <mxGeometry x="750" y="622" width="100" height="40" as="geometry" />
        </mxCell>
        <mxCell id="7_QcFtuR1HdKdEtozn4c-166" value="top left&lt;div&gt;corner point&lt;/div&gt;" style="ellipse;whiteSpace=wrap;html=1;align=center;" parent="1" vertex="1">
          <mxGeometry x="900" y="599" width="100" height="40" as="geometry" />
        </mxCell>
        <mxCell id="7_QcFtuR1HdKdEtozn4c-170" value="" style="endArrow=none;html=1;rounded=0;" parent="1" source="7_QcFtuR1HdKdEtozn4c-165" target="7_QcFtuR1HdKdEtozn4c-150" edge="1">
          <mxGeometry relative="1" as="geometry">
            <mxPoint x="440" y="710" as="sourcePoint" />
            <mxPoint x="600" y="710" as="targetPoint" />
          </mxGeometry>
        </mxCell>
        <mxCell id="7_QcFtuR1HdKdEtozn4c-171" value="" style="endArrow=none;html=1;rounded=0;" parent="1" source="7_QcFtuR1HdKdEtozn4c-166" target="7_QcFtuR1HdKdEtozn4c-165" edge="1">
          <mxGeometry relative="1" as="geometry">
            <mxPoint x="430" y="691" as="sourcePoint" />
            <mxPoint x="590" y="691" as="targetPoint" />
          </mxGeometry>
        </mxCell>
        <mxCell id="7_QcFtuR1HdKdEtozn4c-172" value="top right&lt;div&gt;corner point&lt;/div&gt;" style="ellipse;whiteSpace=wrap;html=1;align=center;" parent="1" vertex="1">
          <mxGeometry x="1010" y="629" width="100" height="40" as="geometry" />
        </mxCell>
        <mxCell id="7_QcFtuR1HdKdEtozn4c-173" value="" style="endArrow=none;html=1;rounded=0;" parent="1" source="7_QcFtuR1HdKdEtozn4c-172" target="7_QcFtuR1HdKdEtozn4c-165" edge="1">
          <mxGeometry relative="1" as="geometry">
            <mxPoint x="540" y="680" as="sourcePoint" />
            <mxPoint x="821" y="731" as="targetPoint" />
          </mxGeometry>
        </mxCell>
        <mxCell id="7_QcFtuR1HdKdEtozn4c-174" value="bottom left&lt;div&gt;corner point&lt;/div&gt;" style="ellipse;whiteSpace=wrap;html=1;align=center;" parent="1" vertex="1">
          <mxGeometry x="900" y="690" width="100" height="40" as="geometry" />
        </mxCell>
        <mxCell id="7_QcFtuR1HdKdEtozn4c-175" value="" style="endArrow=none;html=1;rounded=0;" parent="1" source="7_QcFtuR1HdKdEtozn4c-174" target="7_QcFtuR1HdKdEtozn4c-165" edge="1">
          <mxGeometry relative="1" as="geometry">
            <mxPoint x="450" y="711" as="sourcePoint" />
            <mxPoint x="731" y="762" as="targetPoint" />
          </mxGeometry>
        </mxCell>
        <mxCell id="7_QcFtuR1HdKdEtozn4c-176" value="bottom right&lt;div&gt;corner point&lt;/div&gt;" style="ellipse;whiteSpace=wrap;html=1;align=center;" parent="1" vertex="1">
          <mxGeometry x="1010" y="680" width="100" height="40" as="geometry" />
        </mxCell>
        <mxCell id="7_QcFtuR1HdKdEtozn4c-177" value="" style="endArrow=none;html=1;rounded=0;" parent="1" source="7_QcFtuR1HdKdEtozn4c-176" target="7_QcFtuR1HdKdEtozn4c-165" edge="1">
          <mxGeometry relative="1" as="geometry">
            <mxPoint x="460" y="721" as="sourcePoint" />
            <mxPoint x="741" y="772" as="targetPoint" />
          </mxGeometry>
        </mxCell>
        <mxCell id="7_QcFtuR1HdKdEtozn4c-178" value="x coordinate" style="ellipse;whiteSpace=wrap;html=1;align=center;" parent="1" vertex="1">
          <mxGeometry x="910" y="520" width="100" height="40" as="geometry" />
        </mxCell>
        <mxCell id="7_QcFtuR1HdKdEtozn4c-179" value="y coordinate" style="ellipse;whiteSpace=wrap;html=1;align=center;" parent="1" vertex="1">
          <mxGeometry x="1020" y="531" width="100" height="40" as="geometry" />
        </mxCell>
        <mxCell id="7_QcFtuR1HdKdEtozn4c-180" value="" style="endArrow=none;html=1;rounded=0;" parent="1" source="7_QcFtuR1HdKdEtozn4c-179" target="7_QcFtuR1HdKdEtozn4c-166" edge="1">
          <mxGeometry relative="1" as="geometry">
            <mxPoint x="420" y="709" as="sourcePoint" />
            <mxPoint x="580" y="709" as="targetPoint" />
          </mxGeometry>
        </mxCell>
        <mxCell id="7_QcFtuR1HdKdEtozn4c-181" value="" style="endArrow=none;html=1;rounded=0;" parent="1" source="7_QcFtuR1HdKdEtozn4c-178" target="7_QcFtuR1HdKdEtozn4c-166" edge="1">
          <mxGeometry relative="1" as="geometry">
            <mxPoint x="420" y="709" as="sourcePoint" />
            <mxPoint x="580" y="709" as="targetPoint" />
          </mxGeometry>
        </mxCell>
        <mxCell id="7_QcFtuR1HdKdEtozn4c-185" value="x coordinate" style="ellipse;whiteSpace=wrap;html=1;align=center;" parent="1" vertex="1">
          <mxGeometry x="900" y="780" width="100" height="40" as="geometry" />
        </mxCell>
        <mxCell id="7_QcFtuR1HdKdEtozn4c-186" value="y coordinate" style="ellipse;whiteSpace=wrap;html=1;align=center;" parent="1" vertex="1">
          <mxGeometry x="1010" y="770" width="100" height="40" as="geometry" />
        </mxCell>
        <mxCell id="7_QcFtuR1HdKdEtozn4c-187" value="" style="endArrow=none;html=1;rounded=0;" parent="1" source="7_QcFtuR1HdKdEtozn4c-186" target="7_QcFtuR1HdKdEtozn4c-174" edge="1">
          <mxGeometry relative="1" as="geometry">
            <mxPoint x="600" y="759" as="sourcePoint" />
            <mxPoint x="852" y="900" as="targetPoint" />
          </mxGeometry>
        </mxCell>
        <mxCell id="7_QcFtuR1HdKdEtozn4c-188" value="" style="endArrow=none;html=1;rounded=0;" parent="1" source="7_QcFtuR1HdKdEtozn4c-185" target="7_QcFtuR1HdKdEtozn4c-174" edge="1">
          <mxGeometry relative="1" as="geometry">
            <mxPoint x="950" y="780" as="sourcePoint" />
            <mxPoint x="833" y="899" as="targetPoint" />
          </mxGeometry>
        </mxCell>
        <mxCell id="7_QcFtuR1HdKdEtozn4c-190" value="x coordinate" style="ellipse;whiteSpace=wrap;html=1;align=center;" parent="1" vertex="1">
          <mxGeometry x="1140" y="570" width="100" height="40" as="geometry" />
        </mxCell>
        <mxCell id="7_QcFtuR1HdKdEtozn4c-191" value="y coordinate" style="ellipse;whiteSpace=wrap;html=1;align=center;" parent="1" vertex="1">
          <mxGeometry x="1180" y="620" width="100" height="40" as="geometry" />
        </mxCell>
        <mxCell id="7_QcFtuR1HdKdEtozn4c-192" value="" style="endArrow=none;html=1;rounded=0;" parent="1" source="7_QcFtuR1HdKdEtozn4c-191" target="7_QcFtuR1HdKdEtozn4c-172" edge="1">
          <mxGeometry relative="1" as="geometry">
            <mxPoint x="650" y="758" as="sourcePoint" />
            <mxPoint x="1193" y="649" as="targetPoint" />
          </mxGeometry>
        </mxCell>
        <mxCell id="7_QcFtuR1HdKdEtozn4c-193" value="" style="endArrow=none;html=1;rounded=0;" parent="1" source="7_QcFtuR1HdKdEtozn4c-190" target="7_QcFtuR1HdKdEtozn4c-172" edge="1">
          <mxGeometry relative="1" as="geometry">
            <mxPoint x="650" y="758" as="sourcePoint" />
            <mxPoint x="1169" y="648" as="targetPoint" />
          </mxGeometry>
        </mxCell>
        <mxCell id="7_QcFtuR1HdKdEtozn4c-194" value="x coordinate" style="ellipse;whiteSpace=wrap;html=1;align=center;" parent="1" vertex="1">
          <mxGeometry x="1167" y="691" width="100" height="40" as="geometry" />
        </mxCell>
        <mxCell id="7_QcFtuR1HdKdEtozn4c-195" value="y coordinate" style="ellipse;whiteSpace=wrap;html=1;align=center;" parent="1" vertex="1">
          <mxGeometry x="1140" y="750" width="100" height="40" as="geometry" />
        </mxCell>
        <mxCell id="7_QcFtuR1HdKdEtozn4c-196" value="" style="endArrow=none;html=1;rounded=0;" parent="1" source="7_QcFtuR1HdKdEtozn4c-195" target="7_QcFtuR1HdKdEtozn4c-176" edge="1">
          <mxGeometry relative="1" as="geometry">
            <mxPoint x="677" y="879" as="sourcePoint" />
            <mxPoint x="1137" y="767" as="targetPoint" />
          </mxGeometry>
        </mxCell>
        <mxCell id="7_QcFtuR1HdKdEtozn4c-197" value="" style="endArrow=none;html=1;rounded=0;" parent="1" source="7_QcFtuR1HdKdEtozn4c-194" target="7_QcFtuR1HdKdEtozn4c-176" edge="1">
          <mxGeometry relative="1" as="geometry">
            <mxPoint x="677" y="879" as="sourcePoint" />
            <mxPoint x="1120" y="755" as="targetPoint" />
          </mxGeometry>
        </mxCell>
        <mxCell id="7_QcFtuR1HdKdEtozn4c-198" value="start time" style="ellipse;whiteSpace=wrap;html=1;align=center;" parent="1" vertex="1">
          <mxGeometry x="750" y="671" width="100" height="40" as="geometry" />
        </mxCell>
        <mxCell id="7_QcFtuR1HdKdEtozn4c-199" value="" style="endArrow=none;html=1;rounded=0;" parent="1" source="7_QcFtuR1HdKdEtozn4c-150" target="7_QcFtuR1HdKdEtozn4c-198" edge="1">
          <mxGeometry relative="1" as="geometry">
            <mxPoint x="640" y="710" as="sourcePoint" />
            <mxPoint x="800" y="710" as="targetPoint" />
          </mxGeometry>
        </mxCell>
        <mxCell id="7_QcFtuR1HdKdEtozn4c-200" value="QTA" style="shape=rhombus;double=1;perimeter=rhombusPerimeter;whiteSpace=wrap;html=1;align=center;" parent="1" vertex="1">
          <mxGeometry x="500" y="830" width="120" height="60" as="geometry" />
        </mxCell>
        <mxCell id="7_QcFtuR1HdKdEtozn4c-255" value="options of" style="shape=rhombus;double=1;perimeter=rhombusPerimeter;whiteSpace=wrap;html=1;align=center;" parent="1" vertex="1">
          <mxGeometry x="-35" y="1327.08" width="120" height="60" as="geometry" />
        </mxCell>
        <mxCell id="7_QcFtuR1HdKdEtozn4c-256" value="" style="shape=link;html=1;rounded=0;" parent="1" source="7_QcFtuR1HdKdEtozn4c-273" target="7_QcFtuR1HdKdEtozn4c-255" edge="1">
          <mxGeometry relative="1" as="geometry">
            <mxPoint x="85.69767441860472" y="1248.08" as="sourcePoint" />
            <mxPoint x="335" y="1167.08" as="targetPoint" />
          </mxGeometry>
        </mxCell>
        <mxCell id="7_QcFtuR1HdKdEtozn4c-257" value="1" style="resizable=0;html=1;whiteSpace=wrap;align=right;verticalAlign=bottom;" parent="7_QcFtuR1HdKdEtozn4c-256" connectable="0" vertex="1">
          <mxGeometry x="1" relative="1" as="geometry">
            <mxPoint y="-10" as="offset" />
          </mxGeometry>
        </mxCell>
        <mxCell id="7_QcFtuR1HdKdEtozn4c-258" value="Option" style="shape=ext;margin=3;double=1;whiteSpace=wrap;html=1;align=center;" parent="1" vertex="1">
          <mxGeometry x="35" y="1467.08" width="100" height="40" as="geometry" />
        </mxCell>
        <mxCell id="7_QcFtuR1HdKdEtozn4c-259" value="" style="shape=link;html=1;rounded=0;" parent="1" source="7_QcFtuR1HdKdEtozn4c-258" target="7_QcFtuR1HdKdEtozn4c-255" edge="1">
          <mxGeometry relative="1" as="geometry">
            <mxPoint x="175" y="1407.08" as="sourcePoint" />
            <mxPoint x="325" y="1167.08" as="targetPoint" />
          </mxGeometry>
        </mxCell>
        <mxCell id="7_QcFtuR1HdKdEtozn4c-260" value="N" style="resizable=0;html=1;whiteSpace=wrap;align=right;verticalAlign=bottom;" parent="7_QcFtuR1HdKdEtozn4c-259" connectable="0" vertex="1">
          <mxGeometry x="1" relative="1" as="geometry">
            <mxPoint y="30" as="offset" />
          </mxGeometry>
        </mxCell>
        <mxCell id="7_QcFtuR1HdKdEtozn4c-261" value="correct option of" style="shape=rhombus;perimeter=rhombusPerimeter;whiteSpace=wrap;html=1;align=center;" parent="1" vertex="1">
          <mxGeometry x="100" y="1327.08" width="120" height="60" as="geometry" />
        </mxCell>
        <mxCell id="7_QcFtuR1HdKdEtozn4c-262" value="" style="shape=link;html=1;rounded=0;" parent="1" source="7_QcFtuR1HdKdEtozn4c-273" target="7_QcFtuR1HdKdEtozn4c-261" edge="1">
          <mxGeometry relative="1" as="geometry">
            <mxPoint x="89.31790697674427" y="1248.08" as="sourcePoint" />
            <mxPoint x="322.69" y="1167.08" as="targetPoint" />
          </mxGeometry>
        </mxCell>
        <mxCell id="7_QcFtuR1HdKdEtozn4c-263" value="1" style="resizable=0;html=1;whiteSpace=wrap;align=right;verticalAlign=bottom;" parent="7_QcFtuR1HdKdEtozn4c-262" connectable="0" vertex="1">
          <mxGeometry x="1" relative="1" as="geometry">
            <mxPoint x="8" y="-10" as="offset" />
          </mxGeometry>
        </mxCell>
        <mxCell id="7_QcFtuR1HdKdEtozn4c-264" value="" style="endArrow=none;html=1;rounded=0;" parent="1" source="7_QcFtuR1HdKdEtozn4c-258" target="7_QcFtuR1HdKdEtozn4c-261" edge="1">
          <mxGeometry relative="1" as="geometry">
            <mxPoint x="84.99769230769238" y="1467.08" as="sourcePoint" />
            <mxPoint x="312.69" y="1267.08" as="targetPoint" />
          </mxGeometry>
        </mxCell>
        <mxCell id="7_QcFtuR1HdKdEtozn4c-265" value="1" style="resizable=0;html=1;whiteSpace=wrap;align=right;verticalAlign=bottom;" parent="7_QcFtuR1HdKdEtozn4c-264" connectable="0" vertex="1">
          <mxGeometry x="1" relative="1" as="geometry">
            <mxPoint x="8" y="30" as="offset" />
          </mxGeometry>
        </mxCell>
        <mxCell id="7_QcFtuR1HdKdEtozn4c-266" value="" style="group" parent="1" connectable="0" vertex="1">
          <mxGeometry x="100" y="1118.0839165140978" width="69.2245945153137" height="93.97608348590202" as="geometry" />
        </mxCell>
        <mxCell id="7_QcFtuR1HdKdEtozn4c-267" value="" style="shape=image;verticalLabelPosition=bottom;verticalAlign=top;imageAspect=0;image=data:image/svg+xml,PHN2ZyB4bWxucz0iaHR0cDovL3d3dy53My5vcmcvMjAwMC9zdmciIHhtbG5zOnhsaW5rPSJodHRwOi8vd3d3LnczLm9yZy8xOTk5L3hsaW5rIiBhcmlhLWxhYmVsbGVkYnk9Ik1hdGhKYXgtU1ZHLTEtVGl0bGUiIHJvbGU9ImltZyIgdmlld0JveD0iODMuNSAtNTQxIDYxMSA1ODIuNSIgc3R5bGU9InZlcnRpY2FsLWFsaWduOiAtMC4zMzhleDsiIGhlaWdodD0iMS4zNTMyNjc5OTQ0NTM1NDg0IiB3aWR0aD0iMS40MTg5OTU1MDQxNzQ2OTUiPiYjeGE7PHRpdGxlIGlkPSJNYXRoSmF4LVNWRy0xLVRpdGxlIj57XGRpc3BsYXlzdHlsZSBcc3Vic2V0IH08L3RpdGxlPiYjeGE7PGRlZnMgYXJpYS1oaWRkZW49InRydWUiPiYjeGE7PHBhdGggZD0iTTg0IDI1MFE4NCAzNzIgMTY2IDQ1MFQzNjAgNTM5UTM2MSA1MzkgMzcwIDUzOVQzOTUgNTM5VDQzMCA1NDBUNDc1IDU0MFQ1MjQgNTQwSDY3OVE2OTQgNTMyIDY5NCA1MjBRNjk0IDUxMSA2ODEgNTAxTDUyMiA1MDBINDcwSDQ0MVEzNjYgNTAwIDMzOCA0OTZUMjY2IDQ3MlEyNDQgNDYxIDIyNCA0NDZUMTc5IDQwNFQxMzkgMzM3VDEyNCAyNTBWMjQ1UTEyNCAxNTcgMTg1IDg5UTI0NCAyNSAzMjggN1EzNDggMiAzNjYgMlQ1MjIgMEg2ODFRNjk0IC0xMCA2OTQgLTIwUTY5NCAtMzIgNjc5IC00MEg1MjZRNTEwIC00MCA0ODAgLTQwVDQzNCAtNDFRMzUwIC00MSAyODkgLTI1VDE3MiA0NVE4NCAxMjcgODQgMjUwWiIgaWQ9IkUxLU1KTUFJTi0yMjgyIiBzdHJva2Utd2lkdGg9IjEiLz4mI3hhOzwvZGVmcz4mI3hhOzxnIGFyaWEtaGlkZGVuPSJ0cnVlIiB0cmFuc2Zvcm09Im1hdHJpeCgxIDAgMCAtMSAwIDApIiBzdHJva2Utd2lkdGg9IjAiIGZpbGw9ImN1cnJlbnRDb2xvciIgc3Ryb2tlPSJjdXJyZW50Q29sb3IiPiYjeGE7IDx1c2UgeT0iMCIgeD0iMCIgeGxpbms6aHJlZj0iI0UxLU1KTUFJTi0yMjgyIi8+JiN4YTs8L2c+JiN4YTs8L3N2Zz4=;rotation=315;aspect=fixed;" parent="7_QcFtuR1HdKdEtozn4c-266" vertex="1">
          <mxGeometry x="68.97999999999999" y="11.976083485902024" width="20.248511029411763" height="20.248511029411763" as="geometry" />
        </mxCell>
        <mxCell id="7_QcFtuR1HdKdEtozn4c-268" value="" style="shape=link;html=1;rounded=0;" parent="1" source="7_QcFtuR1HdKdEtozn4c-93" target="7_QcFtuR1HdKdEtozn4c-270" edge="1">
          <mxGeometry relative="1" as="geometry">
            <mxPoint x="256" y="981" as="sourcePoint" />
            <mxPoint x="140" y="1241" as="targetPoint" />
          </mxGeometry>
        </mxCell>
        <mxCell id="7_QcFtuR1HdKdEtozn4c-269" value="type" style="edgeLabel;html=1;align=center;verticalAlign=middle;resizable=0;points=[];" parent="7_QcFtuR1HdKdEtozn4c-268" connectable="0" vertex="1">
          <mxGeometry x="0.1667" y="-1" relative="1" as="geometry">
            <mxPoint x="18" as="offset" />
          </mxGeometry>
        </mxCell>
        <mxCell id="7_QcFtuR1HdKdEtozn4c-270" value="&lt;b&gt;o&lt;/b&gt;" style="ellipse;whiteSpace=wrap;html=1;aspect=fixed;" parent="1" vertex="1">
          <mxGeometry x="240" y="1038.08" width="40" height="40" as="geometry" />
        </mxCell>
        <mxCell id="7_QcFtuR1HdKdEtozn4c-271" value="Question with&amp;nbsp;&lt;div&gt;file attachment&lt;/div&gt;" style="whiteSpace=wrap;html=1;align=center;" parent="1" vertex="1">
          <mxGeometry x="370" y="1208.08" width="100" height="40" as="geometry" />
        </mxCell>
        <mxCell id="7_QcFtuR1HdKdEtozn4c-272" value="Question with&amp;nbsp;&lt;div&gt;text field&lt;/div&gt;" style="whiteSpace=wrap;html=1;align=center;" parent="1" vertex="1">
          <mxGeometry x="210" y="1208.08" width="100" height="40" as="geometry" />
        </mxCell>
        <mxCell id="7_QcFtuR1HdKdEtozn4c-273" value="Multiple choice question" style="whiteSpace=wrap;html=1;align=center;" parent="1" vertex="1">
          <mxGeometry x="40" y="1208.08" width="100" height="40" as="geometry" />
        </mxCell>
        <mxCell id="7_QcFtuR1HdKdEtozn4c-274" value="" style="endArrow=none;html=1;rounded=0;" parent="1" source="7_QcFtuR1HdKdEtozn4c-270" target="7_QcFtuR1HdKdEtozn4c-273" edge="1">
          <mxGeometry relative="1" as="geometry">
            <mxPoint x="198.53075311271937" y="1074.4646384104008" as="sourcePoint" />
            <mxPoint x="100" y="1212.06" as="targetPoint" />
          </mxGeometry>
        </mxCell>
        <mxCell id="7_QcFtuR1HdKdEtozn4c-275" value="&quot;Multiple choice question&quot;" style="edgeLabel;html=1;align=center;verticalAlign=middle;resizable=0;points=[];" parent="7_QcFtuR1HdKdEtozn4c-274" connectable="0" vertex="1">
          <mxGeometry x="-0.4232" y="-2" relative="1" as="geometry">
            <mxPoint x="-77" y="4" as="offset" />
          </mxGeometry>
        </mxCell>
        <mxCell id="7_QcFtuR1HdKdEtozn4c-276" value="" style="endArrow=none;html=1;rounded=0;" parent="1" source="7_QcFtuR1HdKdEtozn4c-270" target="7_QcFtuR1HdKdEtozn4c-272" edge="1">
          <mxGeometry relative="1" as="geometry">
            <mxPoint x="259" y="1084.08" as="sourcePoint" />
            <mxPoint x="164" y="1218.08" as="targetPoint" />
          </mxGeometry>
        </mxCell>
        <mxCell id="7_QcFtuR1HdKdEtozn4c-277" value="&quot;with text field&quot;" style="edgeLabel;html=1;align=center;verticalAlign=middle;resizable=0;points=[];" parent="7_QcFtuR1HdKdEtozn4c-276" connectable="0" vertex="1">
          <mxGeometry x="0.3533" y="-1" relative="1" as="geometry">
            <mxPoint x="-44" y="26" as="offset" />
          </mxGeometry>
        </mxCell>
        <mxCell id="7_QcFtuR1HdKdEtozn4c-278" value="" style="shape=image;verticalLabelPosition=bottom;verticalAlign=top;imageAspect=0;image=data:image/svg+xml,PHN2ZyB4bWxucz0iaHR0cDovL3d3dy53My5vcmcvMjAwMC9zdmciIHhtbG5zOnhsaW5rPSJodHRwOi8vd3d3LnczLm9yZy8xOTk5L3hsaW5rIiBhcmlhLWxhYmVsbGVkYnk9Ik1hdGhKYXgtU1ZHLTEtVGl0bGUiIHJvbGU9ImltZyIgdmlld0JveD0iODMuNSAtNTQxIDYxMSA1ODIuNSIgc3R5bGU9InZlcnRpY2FsLWFsaWduOiAtMC4zMzhleDsiIGhlaWdodD0iMS4zNTMyNjc5OTQ0NTM1NDg0IiB3aWR0aD0iMS40MTg5OTU1MDQxNzQ2OTUiPiYjeGE7PHRpdGxlIGlkPSJNYXRoSmF4LVNWRy0xLVRpdGxlIj57XGRpc3BsYXlzdHlsZSBcc3Vic2V0IH08L3RpdGxlPiYjeGE7PGRlZnMgYXJpYS1oaWRkZW49InRydWUiPiYjeGE7PHBhdGggZD0iTTg0IDI1MFE4NCAzNzIgMTY2IDQ1MFQzNjAgNTM5UTM2MSA1MzkgMzcwIDUzOVQzOTUgNTM5VDQzMCA1NDBUNDc1IDU0MFQ1MjQgNTQwSDY3OVE2OTQgNTMyIDY5NCA1MjBRNjk0IDUxMSA2ODEgNTAxTDUyMiA1MDBINDcwSDQ0MVEzNjYgNTAwIDMzOCA0OTZUMjY2IDQ3MlEyNDQgNDYxIDIyNCA0NDZUMTc5IDQwNFQxMzkgMzM3VDEyNCAyNTBWMjQ1UTEyNCAxNTcgMTg1IDg5UTI0NCAyNSAzMjggN1EzNDggMiAzNjYgMlQ1MjIgMEg2ODFRNjk0IC0xMCA2OTQgLTIwUTY5NCAtMzIgNjc5IC00MEg1MjZRNTEwIC00MCA0ODAgLTQwVDQzNCAtNDFRMzUwIC00MSAyODkgLTI1VDE3MiA0NVE4NCAxMjcgODQgMjUwWiIgaWQ9IkUxLU1KTUFJTi0yMjgyIiBzdHJva2Utd2lkdGg9IjEiLz4mI3hhOzwvZGVmcz4mI3hhOzxnIGFyaWEtaGlkZGVuPSJ0cnVlIiB0cmFuc2Zvcm09Im1hdHJpeCgxIDAgMCAtMSAwIDApIiBzdHJva2Utd2lkdGg9IjAiIGZpbGw9ImN1cnJlbnRDb2xvciIgc3Ryb2tlPSJjdXJyZW50Q29sb3IiPiYjeGE7IDx1c2UgeT0iMCIgeD0iMCIgeGxpbms6aHJlZj0iI0UxLU1KTUFJTi0yMjgyIi8+JiN4YTs8L2c+JiN4YTs8L3N2Zz4=;rotation=270;aspect=fixed;" parent="1" vertex="1">
          <mxGeometry x="249.88" y="1132.06" width="20.248511029411763" height="20.248511029411763" as="geometry" />
        </mxCell>
        <mxCell id="7_QcFtuR1HdKdEtozn4c-279" value="" style="endArrow=none;html=1;rounded=0;" parent="1" source="7_QcFtuR1HdKdEtozn4c-270" target="7_QcFtuR1HdKdEtozn4c-271" edge="1">
          <mxGeometry relative="1" as="geometry">
            <mxPoint x="429" y="1058.08" as="sourcePoint" />
            <mxPoint x="334" y="1192.08" as="targetPoint" />
          </mxGeometry>
        </mxCell>
        <mxCell id="7_QcFtuR1HdKdEtozn4c-280" value="&quot;with file attachment&quot;" style="edgeLabel;html=1;align=center;verticalAlign=middle;resizable=0;points=[];" parent="7_QcFtuR1HdKdEtozn4c-279" connectable="0" vertex="1">
          <mxGeometry x="-0.3565" y="3" relative="1" as="geometry">
            <mxPoint x="49" y="-7" as="offset" />
          </mxGeometry>
        </mxCell>
        <mxCell id="7_QcFtuR1HdKdEtozn4c-281" value="" style="shape=image;verticalLabelPosition=bottom;verticalAlign=top;imageAspect=0;image=data:image/svg+xml,PHN2ZyB4bWxucz0iaHR0cDovL3d3dy53My5vcmcvMjAwMC9zdmciIHhtbG5zOnhsaW5rPSJodHRwOi8vd3d3LnczLm9yZy8xOTk5L3hsaW5rIiBhcmlhLWxhYmVsbGVkYnk9Ik1hdGhKYXgtU1ZHLTEtVGl0bGUiIHJvbGU9ImltZyIgdmlld0JveD0iODMuNSAtNTQxIDYxMSA1ODIuNSIgc3R5bGU9InZlcnRpY2FsLWFsaWduOiAtMC4zMzhleDsiIGhlaWdodD0iMS4zNTMyNjc5OTQ0NTM1NDg0IiB3aWR0aD0iMS40MTg5OTU1MDQxNzQ2OTUiPiYjeGE7PHRpdGxlIGlkPSJNYXRoSmF4LVNWRy0xLVRpdGxlIj57XGRpc3BsYXlzdHlsZSBcc3Vic2V0IH08L3RpdGxlPiYjeGE7PGRlZnMgYXJpYS1oaWRkZW49InRydWUiPiYjeGE7PHBhdGggZD0iTTg0IDI1MFE4NCAzNzIgMTY2IDQ1MFQzNjAgNTM5UTM2MSA1MzkgMzcwIDUzOVQzOTUgNTM5VDQzMCA1NDBUNDc1IDU0MFQ1MjQgNTQwSDY3OVE2OTQgNTMyIDY5NCA1MjBRNjk0IDUxMSA2ODEgNTAxTDUyMiA1MDBINDcwSDQ0MVEzNjYgNTAwIDMzOCA0OTZUMjY2IDQ3MlEyNDQgNDYxIDIyNCA0NDZUMTc5IDQwNFQxMzkgMzM3VDEyNCAyNTBWMjQ1UTEyNCAxNTcgMTg1IDg5UTI0NCAyNSAzMjggN1EzNDggMiAzNjYgMlQ1MjIgMEg2ODFRNjk0IC0xMCA2OTQgLTIwUTY5NCAtMzIgNjc5IC00MEg1MjZRNTEwIC00MCA0ODAgLTQwVDQzNCAtNDFRMzUwIC00MSAyODkgLTI1VDE3MiA0NVE4NCAxMjcgODQgMjUwWiIgaWQ9IkUxLU1KTUFJTi0yMjgyIiBzdHJva2Utd2lkdGg9IjEiLz4mI3hhOzwvZGVmcz4mI3hhOzxnIGFyaWEtaGlkZGVuPSJ0cnVlIiB0cmFuc2Zvcm09Im1hdHJpeCgxIDAgMCAtMSAwIDApIiBzdHJva2Utd2lkdGg9IjAiIGZpbGw9ImN1cnJlbnRDb2xvciIgc3Ryb2tlPSJjdXJyZW50Q29sb3IiPiYjeGE7IDx1c2UgeT0iMCIgeD0iMCIgeGxpbms6aHJlZj0iI0UxLU1KTUFJTi0yMjgyIi8+JiN4YTs8L2c+JiN4YTs8L3N2Zz4=;rotation=225;aspect=fixed;" parent="1" vertex="1">
          <mxGeometry x="319.88" y="1122.06" width="20.248511029411763" height="20.248511029411763" as="geometry" />
        </mxCell>
        <mxCell id="7_QcFtuR1HdKdEtozn4c-283" value="option text" style="ellipse;whiteSpace=wrap;html=1;align=center;" parent="1" vertex="1">
          <mxGeometry x="5" y="1547.08" width="100" height="40" as="geometry" />
        </mxCell>
        <mxCell id="7_QcFtuR1HdKdEtozn4c-284" value="" style="endArrow=none;html=1;rounded=0;" parent="1" source="S5nnPyCxhxMlVzmPQVIY-1" target="7_QcFtuR1HdKdEtozn4c-258" edge="1">
          <mxGeometry relative="1" as="geometry">
            <mxPoint x="-12.398036558608055" y="1531.9162960737708" as="sourcePoint" />
            <mxPoint x="42" y="1507.08" as="targetPoint" />
          </mxGeometry>
        </mxCell>
        <mxCell id="7_QcFtuR1HdKdEtozn4c-285" value="" style="endArrow=none;html=1;rounded=0;" parent="1" source="7_QcFtuR1HdKdEtozn4c-258" target="7_QcFtuR1HdKdEtozn4c-283" edge="1">
          <mxGeometry relative="1" as="geometry">
            <mxPoint x="78" y="1507.08" as="sourcePoint" />
            <mxPoint x="325" y="1387.08" as="targetPoint" />
          </mxGeometry>
        </mxCell>
        <mxCell id="7_QcFtuR1HdKdEtozn4c-288" value="" style="shape=link;html=1;rounded=0;" parent="1" source="7_QcFtuR1HdKdEtozn4c-150" target="7_QcFtuR1HdKdEtozn4c-200" edge="1">
          <mxGeometry relative="1" as="geometry">
            <mxPoint x="540" y="750" as="sourcePoint" />
            <mxPoint x="700" y="750" as="targetPoint" />
          </mxGeometry>
        </mxCell>
        <mxCell id="7_QcFtuR1HdKdEtozn4c-289" value="M" style="resizable=0;html=1;whiteSpace=wrap;align=right;verticalAlign=bottom;" parent="7_QcFtuR1HdKdEtozn4c-288" connectable="0" vertex="1">
          <mxGeometry x="1" relative="1" as="geometry">
            <mxPoint x="-1" y="-9" as="offset" />
          </mxGeometry>
        </mxCell>
        <mxCell id="7_QcFtuR1HdKdEtozn4c-290" value="" style="endArrow=none;html=1;rounded=0;" parent="1" source="7_QcFtuR1HdKdEtozn4c-93" target="7_QcFtuR1HdKdEtozn4c-200" edge="1">
          <mxGeometry relative="1" as="geometry">
            <mxPoint x="540" y="900" as="sourcePoint" />
            <mxPoint x="700" y="900" as="targetPoint" />
          </mxGeometry>
        </mxCell>
        <mxCell id="7_QcFtuR1HdKdEtozn4c-291" value="N" style="resizable=0;html=1;whiteSpace=wrap;align=right;verticalAlign=bottom;" parent="7_QcFtuR1HdKdEtozn4c-290" connectable="0" vertex="1">
          <mxGeometry x="1" relative="1" as="geometry">
            <mxPoint x="-28" y="9" as="offset" />
          </mxGeometry>
        </mxCell>
        <mxCell id="7_QcFtuR1HdKdEtozn4c-292" value="Answer" style="shape=ext;margin=3;double=1;whiteSpace=wrap;html=1;align=center;" parent="1" vertex="1">
          <mxGeometry x="710" y="941" width="100" height="40" as="geometry" />
        </mxCell>
        <mxCell id="7_QcFtuR1HdKdEtozn4c-293" value="" style="shape=link;html=1;rounded=0;" parent="1" source="7_QcFtuR1HdKdEtozn4c-292" target="7_QcFtuR1HdKdEtozn4c-200" edge="1">
          <mxGeometry relative="1" as="geometry">
            <mxPoint x="540" y="850" as="sourcePoint" />
            <mxPoint x="700" y="850" as="targetPoint" />
          </mxGeometry>
        </mxCell>
        <mxCell id="7_QcFtuR1HdKdEtozn4c-294" value="1" style="resizable=0;html=1;whiteSpace=wrap;align=right;verticalAlign=bottom;" parent="7_QcFtuR1HdKdEtozn4c-293" connectable="0" vertex="1">
          <mxGeometry x="1" relative="1" as="geometry">
            <mxPoint x="33" y="9" as="offset" />
          </mxGeometry>
        </mxCell>
        <mxCell id="7_QcFtuR1HdKdEtozn4c-295" value="is bookmarked" style="ellipse;whiteSpace=wrap;html=1;align=center;" parent="1" vertex="1">
          <mxGeometry x="850" y="880" width="100" height="40" as="geometry" />
        </mxCell>
        <mxCell id="7_QcFtuR1HdKdEtozn4c-296" value="" style="endArrow=none;html=1;rounded=0;" parent="1" source="7_QcFtuR1HdKdEtozn4c-292" target="7_QcFtuR1HdKdEtozn4c-295" edge="1">
          <mxGeometry relative="1" as="geometry">
            <mxPoint x="700" y="850" as="sourcePoint" />
            <mxPoint x="860" y="850" as="targetPoint" />
          </mxGeometry>
        </mxCell>
        <mxCell id="7_QcFtuR1HdKdEtozn4c-299" value="" style="group" parent="1" connectable="0" vertex="1">
          <mxGeometry x="600" y="1118.0839165140978" width="69.2245945153137" height="93.97608348590202" as="geometry" />
        </mxCell>
        <mxCell id="7_QcFtuR1HdKdEtozn4c-300" value="" style="shape=image;verticalLabelPosition=bottom;verticalAlign=top;imageAspect=0;image=data:image/svg+xml,PHN2ZyB4bWxucz0iaHR0cDovL3d3dy53My5vcmcvMjAwMC9zdmciIHhtbG5zOnhsaW5rPSJodHRwOi8vd3d3LnczLm9yZy8xOTk5L3hsaW5rIiBhcmlhLWxhYmVsbGVkYnk9Ik1hdGhKYXgtU1ZHLTEtVGl0bGUiIHJvbGU9ImltZyIgdmlld0JveD0iODMuNSAtNTQxIDYxMSA1ODIuNSIgc3R5bGU9InZlcnRpY2FsLWFsaWduOiAtMC4zMzhleDsiIGhlaWdodD0iMS4zNTMyNjc5OTQ0NTM1NDg0IiB3aWR0aD0iMS40MTg5OTU1MDQxNzQ2OTUiPiYjeGE7PHRpdGxlIGlkPSJNYXRoSmF4LVNWRy0xLVRpdGxlIj57XGRpc3BsYXlzdHlsZSBcc3Vic2V0IH08L3RpdGxlPiYjeGE7PGRlZnMgYXJpYS1oaWRkZW49InRydWUiPiYjeGE7PHBhdGggZD0iTTg0IDI1MFE4NCAzNzIgMTY2IDQ1MFQzNjAgNTM5UTM2MSA1MzkgMzcwIDUzOVQzOTUgNTM5VDQzMCA1NDBUNDc1IDU0MFQ1MjQgNTQwSDY3OVE2OTQgNTMyIDY5NCA1MjBRNjk0IDUxMSA2ODEgNTAxTDUyMiA1MDBINDcwSDQ0MVEzNjYgNTAwIDMzOCA0OTZUMjY2IDQ3MlEyNDQgNDYxIDIyNCA0NDZUMTc5IDQwNFQxMzkgMzM3VDEyNCAyNTBWMjQ1UTEyNCAxNTcgMTg1IDg5UTI0NCAyNSAzMjggN1EzNDggMiAzNjYgMlQ1MjIgMEg2ODFRNjk0IC0xMCA2OTQgLTIwUTY5NCAtMzIgNjc5IC00MEg1MjZRNTEwIC00MCA0ODAgLTQwVDQzNCAtNDFRMzUwIC00MSAyODkgLTI1VDE3MiA0NVE4NCAxMjcgODQgMjUwWiIgaWQ9IkUxLU1KTUFJTi0yMjgyIiBzdHJva2Utd2lkdGg9IjEiLz4mI3hhOzwvZGVmcz4mI3hhOzxnIGFyaWEtaGlkZGVuPSJ0cnVlIiB0cmFuc2Zvcm09Im1hdHJpeCgxIDAgMCAtMSAwIDApIiBzdHJva2Utd2lkdGg9IjAiIGZpbGw9ImN1cnJlbnRDb2xvciIgc3Ryb2tlPSJjdXJyZW50Q29sb3IiPiYjeGE7IDx1c2UgeT0iMCIgeD0iMCIgeGxpbms6aHJlZj0iI0UxLU1KTUFJTi0yMjgyIi8+JiN4YTs8L2c+JiN4YTs8L3N2Zz4=;rotation=315;aspect=fixed;" parent="7_QcFtuR1HdKdEtozn4c-299" vertex="1">
          <mxGeometry x="68.97999999999999" y="11.976083485902024" width="20.248511029411763" height="20.248511029411763" as="geometry" />
        </mxCell>
        <mxCell id="7_QcFtuR1HdKdEtozn4c-301" value="" style="shape=link;html=1;rounded=0;" parent="1" source="7_QcFtuR1HdKdEtozn4c-292" target="7_QcFtuR1HdKdEtozn4c-303" edge="1">
          <mxGeometry relative="1" as="geometry">
            <mxPoint x="760" y="981" as="sourcePoint" />
            <mxPoint x="640" y="1241" as="targetPoint" />
          </mxGeometry>
        </mxCell>
        <mxCell id="7_QcFtuR1HdKdEtozn4c-302" value="type" style="edgeLabel;html=1;align=center;verticalAlign=middle;resizable=0;points=[];" parent="7_QcFtuR1HdKdEtozn4c-301" connectable="0" vertex="1">
          <mxGeometry x="0.1667" y="-1" relative="1" as="geometry">
            <mxPoint x="18" as="offset" />
          </mxGeometry>
        </mxCell>
        <mxCell id="7_QcFtuR1HdKdEtozn4c-303" value="&lt;b&gt;o&lt;/b&gt;" style="ellipse;whiteSpace=wrap;html=1;aspect=fixed;" parent="1" vertex="1">
          <mxGeometry x="740" y="1038.08" width="40" height="40" as="geometry" />
        </mxCell>
        <mxCell id="7_QcFtuR1HdKdEtozn4c-304" value="&lt;div&gt;File attachment answer&lt;/div&gt;" style="whiteSpace=wrap;html=1;align=center;" parent="1" vertex="1">
          <mxGeometry x="870" y="1208.08" width="100" height="40" as="geometry" />
        </mxCell>
        <mxCell id="7_QcFtuR1HdKdEtozn4c-305" value="&lt;div&gt;Text field answer&lt;/div&gt;" style="whiteSpace=wrap;html=1;align=center;" parent="1" vertex="1">
          <mxGeometry x="710" y="1208.08" width="100" height="40" as="geometry" />
        </mxCell>
        <mxCell id="7_QcFtuR1HdKdEtozn4c-306" value="MCQ answer" style="whiteSpace=wrap;html=1;align=center;" parent="1" vertex="1">
          <mxGeometry x="540" y="1208.08" width="100" height="40" as="geometry" />
        </mxCell>
        <mxCell id="7_QcFtuR1HdKdEtozn4c-307" value="" style="endArrow=none;html=1;rounded=0;" parent="1" source="7_QcFtuR1HdKdEtozn4c-303" target="7_QcFtuR1HdKdEtozn4c-306" edge="1">
          <mxGeometry relative="1" as="geometry">
            <mxPoint x="698.5307531127194" y="1074.4646384104008" as="sourcePoint" />
            <mxPoint x="600" y="1212.06" as="targetPoint" />
          </mxGeometry>
        </mxCell>
        <mxCell id="7_QcFtuR1HdKdEtozn4c-308" value="&quot;MCQ answer&quot;" style="edgeLabel;html=1;align=center;verticalAlign=middle;resizable=0;points=[];" parent="7_QcFtuR1HdKdEtozn4c-307" connectable="0" vertex="1">
          <mxGeometry x="-0.4232" y="-2" relative="1" as="geometry">
            <mxPoint x="-77" y="7" as="offset" />
          </mxGeometry>
        </mxCell>
        <mxCell id="7_QcFtuR1HdKdEtozn4c-309" value="" style="endArrow=none;html=1;rounded=0;" parent="1" source="7_QcFtuR1HdKdEtozn4c-303" target="7_QcFtuR1HdKdEtozn4c-305" edge="1">
          <mxGeometry relative="1" as="geometry">
            <mxPoint x="759" y="1084.08" as="sourcePoint" />
            <mxPoint x="664" y="1218.08" as="targetPoint" />
          </mxGeometry>
        </mxCell>
        <mxCell id="7_QcFtuR1HdKdEtozn4c-310" value="&quot;text field answer&quot;" style="edgeLabel;html=1;align=center;verticalAlign=middle;resizable=0;points=[];" parent="7_QcFtuR1HdKdEtozn4c-309" connectable="0" vertex="1">
          <mxGeometry x="0.3533" y="-1" relative="1" as="geometry">
            <mxPoint x="-48" y="26" as="offset" />
          </mxGeometry>
        </mxCell>
        <mxCell id="7_QcFtuR1HdKdEtozn4c-311" value="" style="shape=image;verticalLabelPosition=bottom;verticalAlign=top;imageAspect=0;image=data:image/svg+xml,PHN2ZyB4bWxucz0iaHR0cDovL3d3dy53My5vcmcvMjAwMC9zdmciIHhtbG5zOnhsaW5rPSJodHRwOi8vd3d3LnczLm9yZy8xOTk5L3hsaW5rIiBhcmlhLWxhYmVsbGVkYnk9Ik1hdGhKYXgtU1ZHLTEtVGl0bGUiIHJvbGU9ImltZyIgdmlld0JveD0iODMuNSAtNTQxIDYxMSA1ODIuNSIgc3R5bGU9InZlcnRpY2FsLWFsaWduOiAtMC4zMzhleDsiIGhlaWdodD0iMS4zNTMyNjc5OTQ0NTM1NDg0IiB3aWR0aD0iMS40MTg5OTU1MDQxNzQ2OTUiPiYjeGE7PHRpdGxlIGlkPSJNYXRoSmF4LVNWRy0xLVRpdGxlIj57XGRpc3BsYXlzdHlsZSBcc3Vic2V0IH08L3RpdGxlPiYjeGE7PGRlZnMgYXJpYS1oaWRkZW49InRydWUiPiYjeGE7PHBhdGggZD0iTTg0IDI1MFE4NCAzNzIgMTY2IDQ1MFQzNjAgNTM5UTM2MSA1MzkgMzcwIDUzOVQzOTUgNTM5VDQzMCA1NDBUNDc1IDU0MFQ1MjQgNTQwSDY3OVE2OTQgNTMyIDY5NCA1MjBRNjk0IDUxMSA2ODEgNTAxTDUyMiA1MDBINDcwSDQ0MVEzNjYgNTAwIDMzOCA0OTZUMjY2IDQ3MlEyNDQgNDYxIDIyNCA0NDZUMTc5IDQwNFQxMzkgMzM3VDEyNCAyNTBWMjQ1UTEyNCAxNTcgMTg1IDg5UTI0NCAyNSAzMjggN1EzNDggMiAzNjYgMlQ1MjIgMEg2ODFRNjk0IC0xMCA2OTQgLTIwUTY5NCAtMzIgNjc5IC00MEg1MjZRNTEwIC00MCA0ODAgLTQwVDQzNCAtNDFRMzUwIC00MSAyODkgLTI1VDE3MiA0NVE4NCAxMjcgODQgMjUwWiIgaWQ9IkUxLU1KTUFJTi0yMjgyIiBzdHJva2Utd2lkdGg9IjEiLz4mI3hhOzwvZGVmcz4mI3hhOzxnIGFyaWEtaGlkZGVuPSJ0cnVlIiB0cmFuc2Zvcm09Im1hdHJpeCgxIDAgMCAtMSAwIDApIiBzdHJva2Utd2lkdGg9IjAiIGZpbGw9ImN1cnJlbnRDb2xvciIgc3Ryb2tlPSJjdXJyZW50Q29sb3IiPiYjeGE7IDx1c2UgeT0iMCIgeD0iMCIgeGxpbms6aHJlZj0iI0UxLU1KTUFJTi0yMjgyIi8+JiN4YTs8L2c+JiN4YTs8L3N2Zz4=;rotation=270;aspect=fixed;" parent="1" vertex="1">
          <mxGeometry x="749.88" y="1132.06" width="20.248511029411763" height="20.248511029411763" as="geometry" />
        </mxCell>
        <mxCell id="7_QcFtuR1HdKdEtozn4c-312" value="" style="endArrow=none;html=1;rounded=0;" parent="1" source="7_QcFtuR1HdKdEtozn4c-303" target="7_QcFtuR1HdKdEtozn4c-304" edge="1">
          <mxGeometry relative="1" as="geometry">
            <mxPoint x="929" y="1058.08" as="sourcePoint" />
            <mxPoint x="834" y="1192.08" as="targetPoint" />
          </mxGeometry>
        </mxCell>
        <mxCell id="7_QcFtuR1HdKdEtozn4c-313" value="&quot;file attachment answer&quot;" style="edgeLabel;html=1;align=center;verticalAlign=middle;resizable=0;points=[];" parent="7_QcFtuR1HdKdEtozn4c-312" connectable="0" vertex="1">
          <mxGeometry x="-0.3565" y="3" relative="1" as="geometry">
            <mxPoint x="62" y="-7" as="offset" />
          </mxGeometry>
        </mxCell>
        <mxCell id="7_QcFtuR1HdKdEtozn4c-314" value="" style="shape=image;verticalLabelPosition=bottom;verticalAlign=top;imageAspect=0;image=data:image/svg+xml,PHN2ZyB4bWxucz0iaHR0cDovL3d3dy53My5vcmcvMjAwMC9zdmciIHhtbG5zOnhsaW5rPSJodHRwOi8vd3d3LnczLm9yZy8xOTk5L3hsaW5rIiBhcmlhLWxhYmVsbGVkYnk9Ik1hdGhKYXgtU1ZHLTEtVGl0bGUiIHJvbGU9ImltZyIgdmlld0JveD0iODMuNSAtNTQxIDYxMSA1ODIuNSIgc3R5bGU9InZlcnRpY2FsLWFsaWduOiAtMC4zMzhleDsiIGhlaWdodD0iMS4zNTMyNjc5OTQ0NTM1NDg0IiB3aWR0aD0iMS40MTg5OTU1MDQxNzQ2OTUiPiYjeGE7PHRpdGxlIGlkPSJNYXRoSmF4LVNWRy0xLVRpdGxlIj57XGRpc3BsYXlzdHlsZSBcc3Vic2V0IH08L3RpdGxlPiYjeGE7PGRlZnMgYXJpYS1oaWRkZW49InRydWUiPiYjeGE7PHBhdGggZD0iTTg0IDI1MFE4NCAzNzIgMTY2IDQ1MFQzNjAgNTM5UTM2MSA1MzkgMzcwIDUzOVQzOTUgNTM5VDQzMCA1NDBUNDc1IDU0MFQ1MjQgNTQwSDY3OVE2OTQgNTMyIDY5NCA1MjBRNjk0IDUxMSA2ODEgNTAxTDUyMiA1MDBINDcwSDQ0MVEzNjYgNTAwIDMzOCA0OTZUMjY2IDQ3MlEyNDQgNDYxIDIyNCA0NDZUMTc5IDQwNFQxMzkgMzM3VDEyNCAyNTBWMjQ1UTEyNCAxNTcgMTg1IDg5UTI0NCAyNSAzMjggN1EzNDggMiAzNjYgMlQ1MjIgMEg2ODFRNjk0IC0xMCA2OTQgLTIwUTY5NCAtMzIgNjc5IC00MEg1MjZRNTEwIC00MCA0ODAgLTQwVDQzNCAtNDFRMzUwIC00MSAyODkgLTI1VDE3MiA0NVE4NCAxMjcgODQgMjUwWiIgaWQ9IkUxLU1KTUFJTi0yMjgyIiBzdHJva2Utd2lkdGg9IjEiLz4mI3hhOzwvZGVmcz4mI3hhOzxnIGFyaWEtaGlkZGVuPSJ0cnVlIiB0cmFuc2Zvcm09Im1hdHJpeCgxIDAgMCAtMSAwIDApIiBzdHJva2Utd2lkdGg9IjAiIGZpbGw9ImN1cnJlbnRDb2xvciIgc3Ryb2tlPSJjdXJyZW50Q29sb3IiPiYjeGE7IDx1c2UgeT0iMCIgeD0iMCIgeGxpbms6aHJlZj0iI0UxLU1KTUFJTi0yMjgyIi8+JiN4YTs8L2c+JiN4YTs8L3N2Zz4=;rotation=225;aspect=fixed;" parent="1" vertex="1">
          <mxGeometry x="819.88" y="1122.06" width="20.248511029411763" height="20.248511029411763" as="geometry" />
        </mxCell>
        <mxCell id="7_QcFtuR1HdKdEtozn4c-315" value="answer_text" style="ellipse;whiteSpace=wrap;html=1;align=center;" parent="1" vertex="1">
          <mxGeometry x="710" y="1300" width="100" height="40" as="geometry" />
        </mxCell>
        <mxCell id="7_QcFtuR1HdKdEtozn4c-316" value="" style="endArrow=none;html=1;rounded=0;" parent="1" source="7_QcFtuR1HdKdEtozn4c-315" target="7_QcFtuR1HdKdEtozn4c-305" edge="1">
          <mxGeometry relative="1" as="geometry">
            <mxPoint x="540" y="1150" as="sourcePoint" />
            <mxPoint x="700" y="1150" as="targetPoint" />
          </mxGeometry>
        </mxCell>
        <mxCell id="7_QcFtuR1HdKdEtozn4c-317" value="attached file URL" style="ellipse;whiteSpace=wrap;html=1;align=center;" parent="1" vertex="1">
          <mxGeometry x="870" y="1300" width="100" height="40" as="geometry" />
        </mxCell>
        <mxCell id="7_QcFtuR1HdKdEtozn4c-318" value="" style="endArrow=none;html=1;rounded=0;" parent="1" source="7_QcFtuR1HdKdEtozn4c-317" target="7_QcFtuR1HdKdEtozn4c-304" edge="1">
          <mxGeometry relative="1" as="geometry">
            <mxPoint x="540" y="1150" as="sourcePoint" />
            <mxPoint x="700" y="1150" as="targetPoint" />
          </mxGeometry>
        </mxCell>
        <mxCell id="7_QcFtuR1HdKdEtozn4c-319" value="chosen option" style="shape=rhombus;perimeter=rhombusPerimeter;whiteSpace=wrap;html=1;align=center;" parent="1" vertex="1">
          <mxGeometry x="530" y="1290" width="120" height="60" as="geometry" />
        </mxCell>
        <mxCell id="7_QcFtuR1HdKdEtozn4c-320" value="" style="endArrow=none;html=1;rounded=0;" parent="1" source="7_QcFtuR1HdKdEtozn4c-258" target="7_QcFtuR1HdKdEtozn4c-319" edge="1">
          <mxGeometry relative="1" as="geometry">
            <mxPoint x="540" y="1350" as="sourcePoint" />
            <mxPoint x="700" y="1350" as="targetPoint" />
          </mxGeometry>
        </mxCell>
        <mxCell id="7_QcFtuR1HdKdEtozn4c-321" value="1" style="resizable=0;html=1;whiteSpace=wrap;align=right;verticalAlign=bottom;" parent="7_QcFtuR1HdKdEtozn4c-320" connectable="0" vertex="1">
          <mxGeometry x="1" relative="1" as="geometry">
            <mxPoint y="27" as="offset" />
          </mxGeometry>
        </mxCell>
        <mxCell id="7_QcFtuR1HdKdEtozn4c-323" value="" style="endArrow=none;html=1;rounded=0;" parent="1" source="7_QcFtuR1HdKdEtozn4c-306" target="7_QcFtuR1HdKdEtozn4c-319" edge="1">
          <mxGeometry relative="1" as="geometry">
            <mxPoint x="540" y="1350" as="sourcePoint" />
            <mxPoint x="700" y="1350" as="targetPoint" />
          </mxGeometry>
        </mxCell>
        <mxCell id="7_QcFtuR1HdKdEtozn4c-324" value="N" style="resizable=0;html=1;whiteSpace=wrap;align=right;verticalAlign=bottom;" parent="7_QcFtuR1HdKdEtozn4c-323" connectable="0" vertex="1">
          <mxGeometry x="1" relative="1" as="geometry">
            <mxPoint x="-5" as="offset" />
          </mxGeometry>
        </mxCell>
        <mxCell id="7_QcFtuR1HdKdEtozn4c-325" value="marks obtained" style="ellipse;whiteSpace=wrap;html=1;align=center;" parent="1" vertex="1">
          <mxGeometry x="870" y="930" width="100" height="40" as="geometry" />
        </mxCell>
        <mxCell id="7_QcFtuR1HdKdEtozn4c-326" value="" style="endArrow=none;html=1;rounded=0;" parent="1" source="7_QcFtuR1HdKdEtozn4c-292" target="7_QcFtuR1HdKdEtozn4c-325" edge="1">
          <mxGeometry relative="1" as="geometry">
            <mxPoint x="540" y="1150" as="sourcePoint" />
            <mxPoint x="700" y="1150" as="targetPoint" />
          </mxGeometry>
        </mxCell>
        <mxCell id="7_QcFtuR1HdKdEtozn4c-327" value="end time" style="ellipse;whiteSpace=wrap;html=1;align=center;" parent="1" vertex="1">
          <mxGeometry x="781" y="721" width="100" height="40" as="geometry" />
        </mxCell>
        <mxCell id="7_QcFtuR1HdKdEtozn4c-328" value="" style="endArrow=none;html=1;rounded=0;" parent="1" source="7_QcFtuR1HdKdEtozn4c-150" target="7_QcFtuR1HdKdEtozn4c-327" edge="1">
          <mxGeometry relative="1" as="geometry">
            <mxPoint x="640" y="750" as="sourcePoint" />
            <mxPoint x="800" y="750" as="targetPoint" />
          </mxGeometry>
        </mxCell>
        <mxCell id="7_QcFtuR1HdKdEtozn4c-329" value="marks obtained" style="ellipse;whiteSpace=wrap;html=1;align=center;dashed=1;" parent="1" vertex="1">
          <mxGeometry x="668.22" y="711" width="100" height="40" as="geometry" />
        </mxCell>
        <mxCell id="7_QcFtuR1HdKdEtozn4c-330" value="" style="endArrow=none;html=1;rounded=0;" parent="1" source="7_QcFtuR1HdKdEtozn4c-150" target="7_QcFtuR1HdKdEtozn4c-329" edge="1">
          <mxGeometry relative="1" as="geometry">
            <mxPoint x="640" y="750" as="sourcePoint" />
            <mxPoint x="800" y="750" as="targetPoint" />
          </mxGeometry>
        </mxCell>
        <mxCell id="7_QcFtuR1HdKdEtozn4c-331" value="caught cheating" style="ellipse;whiteSpace=wrap;html=1;align=center;" parent="1" vertex="1">
          <mxGeometry x="640" y="761" width="100" height="40" as="geometry" />
        </mxCell>
        <mxCell id="7_QcFtuR1HdKdEtozn4c-332" value="" style="endArrow=none;html=1;rounded=0;" parent="1" source="7_QcFtuR1HdKdEtozn4c-150" target="7_QcFtuR1HdKdEtozn4c-331" edge="1">
          <mxGeometry relative="1" as="geometry">
            <mxPoint x="640" y="650" as="sourcePoint" />
            <mxPoint x="800" y="650" as="targetPoint" />
          </mxGeometry>
        </mxCell>
        <mxCell id="7_QcFtuR1HdKdEtozn4c-333" value="Gaze data" style="shape=ext;margin=3;double=1;whiteSpace=wrap;html=1;align=center;" parent="1" vertex="1">
          <mxGeometry x="880" y="380" width="100" height="40" as="geometry" />
        </mxCell>
        <mxCell id="7_QcFtuR1HdKdEtozn4c-334" value="&lt;div&gt;&lt;span style=&quot;background-color: transparent; color: light-dark(rgb(0, 0, 0), rgb(255, 255, 255));&quot;&gt;gaze data&amp;nbsp;&lt;/span&gt;&lt;span style=&quot;background-color: transparent; color: light-dark(rgb(0, 0, 0), rgb(255, 255, 255));&quot;&gt;for&lt;/span&gt;&lt;/div&gt;" style="shape=rhombus;double=1;perimeter=rhombusPerimeter;whiteSpace=wrap;html=1;align=center;" parent="1" vertex="1">
          <mxGeometry x="668.22" y="451" width="120" height="60" as="geometry" />
        </mxCell>
        <mxCell id="7_QcFtuR1HdKdEtozn4c-335" value="" style="shape=link;html=1;rounded=0;" parent="1" source="7_QcFtuR1HdKdEtozn4c-150" target="7_QcFtuR1HdKdEtozn4c-334" edge="1">
          <mxGeometry relative="1" as="geometry">
            <mxPoint x="540" y="650" as="sourcePoint" />
            <mxPoint x="700" y="650" as="targetPoint" />
          </mxGeometry>
        </mxCell>
        <mxCell id="7_QcFtuR1HdKdEtozn4c-336" value="1" style="resizable=0;html=1;whiteSpace=wrap;align=right;verticalAlign=bottom;" parent="7_QcFtuR1HdKdEtozn4c-335" connectable="0" vertex="1">
          <mxGeometry x="1" relative="1" as="geometry">
            <mxPoint x="-14" y="13" as="offset" />
          </mxGeometry>
        </mxCell>
        <mxCell id="7_QcFtuR1HdKdEtozn4c-337" value="" style="shape=link;html=1;rounded=0;" parent="1" source="7_QcFtuR1HdKdEtozn4c-333" target="7_QcFtuR1HdKdEtozn4c-334" edge="1">
          <mxGeometry relative="1" as="geometry">
            <mxPoint x="540" y="650" as="sourcePoint" />
            <mxPoint x="700" y="650" as="targetPoint" />
          </mxGeometry>
        </mxCell>
        <mxCell id="7_QcFtuR1HdKdEtozn4c-338" value="N" style="resizable=0;html=1;whiteSpace=wrap;align=right;verticalAlign=bottom;" parent="7_QcFtuR1HdKdEtozn4c-337" connectable="0" vertex="1">
          <mxGeometry x="1" relative="1" as="geometry">
            <mxPoint x="5" y="-5" as="offset" />
          </mxGeometry>
        </mxCell>
        <mxCell id="7_QcFtuR1HdKdEtozn4c-339" value="Id" style="ellipse;whiteSpace=wrap;html=1;align=center;fontStyle=4;" parent="1" vertex="1">
          <mxGeometry x="950" y="304.23" width="100" height="40" as="geometry" />
        </mxCell>
        <mxCell id="7_QcFtuR1HdKdEtozn4c-340" value="&lt;span style=&quot;border-bottom: 1px dotted&quot;&gt;timestamp&lt;/span&gt;" style="ellipse;whiteSpace=wrap;html=1;align=center;" parent="1" vertex="1">
          <mxGeometry x="1010" y="344.23" width="100" height="40" as="geometry" />
        </mxCell>
        <mxCell id="7_QcFtuR1HdKdEtozn4c-341" value="" style="endArrow=none;html=1;rounded=0;" parent="1" source="7_QcFtuR1HdKdEtozn4c-333" target="7_QcFtuR1HdKdEtozn4c-339" edge="1">
          <mxGeometry relative="1" as="geometry">
            <mxPoint x="540" y="650" as="sourcePoint" />
            <mxPoint x="700" y="650" as="targetPoint" />
          </mxGeometry>
        </mxCell>
        <mxCell id="7_QcFtuR1HdKdEtozn4c-342" value="" style="endArrow=none;html=1;rounded=0;" parent="1" source="7_QcFtuR1HdKdEtozn4c-333" target="7_QcFtuR1HdKdEtozn4c-340" edge="1">
          <mxGeometry relative="1" as="geometry">
            <mxPoint x="540" y="650" as="sourcePoint" />
            <mxPoint x="700" y="650" as="targetPoint" />
          </mxGeometry>
        </mxCell>
        <mxCell id="7_QcFtuR1HdKdEtozn4c-343" value="gaze extrapolation" style="ellipse;whiteSpace=wrap;html=1;align=center;" parent="1" vertex="1">
          <mxGeometry x="1010" y="411" width="100" height="40" as="geometry" />
        </mxCell>
        <mxCell id="7_QcFtuR1HdKdEtozn4c-344" value="x coordinate" style="ellipse;whiteSpace=wrap;html=1;align=center;" parent="1" vertex="1">
          <mxGeometry x="1140" y="374.5" width="100" height="40" as="geometry" />
        </mxCell>
        <mxCell id="7_QcFtuR1HdKdEtozn4c-345" value="y coordinate" style="ellipse;whiteSpace=wrap;html=1;align=center;" parent="1" vertex="1">
          <mxGeometry x="1140" y="440" width="100" height="40" as="geometry" />
        </mxCell>
        <mxCell id="7_QcFtuR1HdKdEtozn4c-346" value="" style="endArrow=none;html=1;rounded=0;" parent="1" source="7_QcFtuR1HdKdEtozn4c-343" target="7_QcFtuR1HdKdEtozn4c-345" edge="1">
          <mxGeometry relative="1" as="geometry">
            <mxPoint x="540" y="650" as="sourcePoint" />
            <mxPoint x="700" y="650" as="targetPoint" />
          </mxGeometry>
        </mxCell>
        <mxCell id="7_QcFtuR1HdKdEtozn4c-347" value="" style="endArrow=none;html=1;rounded=0;" parent="1" source="7_QcFtuR1HdKdEtozn4c-343" target="7_QcFtuR1HdKdEtozn4c-344" edge="1">
          <mxGeometry relative="1" as="geometry">
            <mxPoint x="540" y="650" as="sourcePoint" />
            <mxPoint x="700" y="650" as="targetPoint" />
          </mxGeometry>
        </mxCell>
        <mxCell id="7_QcFtuR1HdKdEtozn4c-348" value="" style="endArrow=none;html=1;rounded=0;" parent="1" source="7_QcFtuR1HdKdEtozn4c-333" target="7_QcFtuR1HdKdEtozn4c-343" edge="1">
          <mxGeometry relative="1" as="geometry">
            <mxPoint x="540" y="650" as="sourcePoint" />
            <mxPoint x="700" y="650" as="targetPoint" />
          </mxGeometry>
        </mxCell>
        <mxCell id="UElor72e53C3lxd5PoUE-1" value="&lt;span style=&quot;border-bottom: 1px dotted&quot;&gt;discriminator&lt;/span&gt;" style="ellipse;whiteSpace=wrap;html=1;align=center;" parent="1" vertex="1">
          <mxGeometry x="110" y="870" width="100" height="40" as="geometry" />
        </mxCell>
        <mxCell id="S5nnPyCxhxMlVzmPQVIY-1" value="&lt;span style=&quot;border-bottom: 1px dotted&quot;&gt;discriminator&lt;/span&gt;" style="ellipse;whiteSpace=wrap;html=1;align=center;" parent="1" vertex="1">
          <mxGeometry x="-95" y="1527.08" width="100" height="40" as="geometry" />
        </mxCell>
      </root>
    </mxGraphModel>
  </diagram>
</mxfile>
